<svg id="Layer_1" data-name="Layer 1" xmlns="http://www.w3.org/2000/svg" viewBox="0 0 332.78 329.15"><defs><style>.cls-1{fill:#1a1a1a;}</style></defs><title>gualotuna-logo</title><path class="cls-1" d="M300.41,227.09l48.71-13v27.71q-.39,20.55-14.11,38a66.79,66.79,0,0,1-34.79,23.35q-16.19,3.93-27-.67-11-4.26-16-12.36-1.5-2.67-2.72-5.15a30.7,30.7,0,0,1-1.88-6.78q-1.42-7.83-1.42-31.17,0-23.7,1.42-32.1a47.58,47.58,0,0,1,4.6-14.2q5-10.74,16-21.05,10.81-10.33,27-14.83Q320,159.81,332.56,168t15.8,24.44l-22,5.86a20.74,20.74,0,0,0-9.22-11.55q-7-3.66-16.92-1.19a37,37,0,0,0-12.6,6.24,38.65,38.65,0,0,0-8.65,9.3,30,30,0,0,0-5.37,12.72q-1.5,7.68-1.5,27.74t1.5,26.76c.88,4.49,2.67,7.85,5.37,10.05a16.93,16.93,0,0,0,8.65,4.51q5.26,1.68,12.6-.27a38.69,38.69,0,0,0,28.11-36.31v-7.09l-27.92,7.42Z" transform="translate(-16.33 -35.02)"/><path class="cls-1" d="M140.87,35c9.51,16.45,31,20.73,48.56,20.79s39.41-4.09,49.22-20.44c0,5.76.25,11.53.08,17.29-.14,5-.82,9.34-4.31,13.15C227.54,73.3,215.93,77,206.23,78.69a96.51,96.51,0,0,1-33.39-.14c-9.55-1.71-20.77-5.3-27.43-12.77A18.62,18.62,0,0,1,140.72,53C140.79,47,140.87,41,140.87,35Z" transform="translate(-16.33 -35.02)"/><path class="cls-1" d="M191.33,171.56c0-5-2.33-7.93-8.44-10.75q-78.39-36.1-156.38-72.6c-2.73-1.27-5.62-2.4-9.5-4C16.8,87,16.52,89,16.52,91c0,61.84.06,123.68-.19,185.52,0,4.95,2.26,7.91,8.41,10.74q79.16,36.48,157.88,73.35c2.23,1,4.62,1.91,8.57,3.53v-7.72C191.18,294.82,191.09,233.19,191.33,171.56Z" transform="translate(-16.33 -35.02)"/></svg>