<svg id="5cf0214f-05d5-41c9-917b-ece4859a2c9a" data-name="Layer 1" xmlns="http://www.w3.org/2000/svg" width="213.24" height="27.76" viewBox="0 0 213.24 27.76">
  <defs>
    <style>
      .ef3c9041-647c-470a-b68e-e1866080b9f0 {
        fill: #38955a;
      }

      .a01ae429-8250-4230-9edc-214ed3d54067 {
        fill: #fff;
      }
    </style>
  </defs>
  <title>insumedical</title>
  <rect class="ef3c9041-647c-470a-b68e-e1866080b9f0" width="213.24" height="27.76" rx="6.58" ry="6.58"/>
  <g>
    <path class="a01ae429-8250-4230-9edc-214ed3d54067" d="M20.28,23H11.43V21.86a5.06,5.06,0,0,0,1.67-.21,1.17,1.17,0,0,0,.74-.64A3.18,3.18,0,0,0,14,19.8v-11a2.22,2.22,0,0,0-.47-1.6,3.32,3.32,0,0,0-2.12-.46V5.61h8.85V6.79A4.72,4.72,0,0,0,18.61,7a1.2,1.2,0,0,0-.74.64,3.12,3.12,0,0,0-.18,1.2v11A3.29,3.29,0,0,0,17.86,21a1.22,1.22,0,0,0,.71.66,4.82,4.82,0,0,0,1.71.23Z" transform="translate(-0.35 -0.44)"/>
    <path class="a01ae429-8250-4230-9edc-214ed3d54067" d="M40.4,6.79A4.75,4.75,0,0,0,38.61,7a1.16,1.16,0,0,0-.67.74,7.36,7.36,0,0,0-.13,1.6V23.2H36.63L25.23,9.65v9.6a6.73,6.73,0,0,0,.13,1.59,1.19,1.19,0,0,0,.69.76,4.55,4.55,0,0,0,1.79.26V23H21.36V21.86A4,4,0,0,0,23,21.6a1.16,1.16,0,0,0,.65-.76,7.47,7.47,0,0,0,.12-1.59v-8.9a16,16,0,0,0-.06-1.62,2.65,2.65,0,0,0-.27-.94,1.66,1.66,0,0,0-.72-.66,3.9,3.9,0,0,0-1.37-.34V5.61h5.08l9.93,11.72V9.38a6.27,6.27,0,0,0-.14-1.5,1.24,1.24,0,0,0-.67-.81,3.91,3.91,0,0,0-1.69-.28V5.61H40.4Z" transform="translate(-0.35 -0.44)"/>
    <path class="a01ae429-8250-4230-9edc-214ed3d54067" d="M54.76,18a4.89,4.89,0,0,1-.35,1.72,5.94,5.94,0,0,1-1,1.73,5.08,5.08,0,0,1-1.76,1.35,5.54,5.54,0,0,1-2.47.52,6.8,6.8,0,0,1-2.76-.6A6,6,0,0,1,44.05,21a7.23,7.23,0,0,0-.53,1.76H42.34v-6h1.18a11.94,11.94,0,0,0,.89,2.41A5.66,5.66,0,0,0,46,21.12a4,4,0,0,0,2.54.82,3,3,0,0,0,2.1-.72,2.35,2.35,0,0,0,.79-1.82,2.32,2.32,0,0,0-.24-1.08,2.59,2.59,0,0,0-.71-.82,7.7,7.7,0,0,0-1.27-.79c-.53-.28-1.14-.57-1.83-.88a15.61,15.61,0,0,1-2.59-1.5,7.32,7.32,0,0,1-1.54-1.48,4.24,4.24,0,0,1-.92-2.65A4.73,4.73,0,0,1,43,7.89,4.9,4.9,0,0,1,44.81,6a5.33,5.33,0,0,1,2.81-.73A5.12,5.12,0,0,1,50,5.85a5.92,5.92,0,0,1,1.92,1.49,8.32,8.32,0,0,0,.42-1.51H53.5v4.86H52.29q-1.29-4-4.47-4A2.78,2.78,0,0,0,46,7.32a2,2,0,0,0-.7,1.58,2,2,0,0,0,.44,1.32,3.8,3.8,0,0,0,1.15,1c.47.26,1.24.64,2.3,1.14,1.29.61,2.29,1.14,3,1.58A6.6,6.6,0,0,1,54,15.59,4,4,0,0,1,54.76,18Z" transform="translate(-0.35 -0.44)"/>
    <path class="a01ae429-8250-4230-9edc-214ed3d54067" d="M75.23,6.79a3.82,3.82,0,0,0-1.68.27,1.13,1.13,0,0,0-.62.77,7.3,7.3,0,0,0-.12,1.55V15.8a21.68,21.68,0,0,1-.12,2.67A5,5,0,0,1,72,20.28a5.14,5.14,0,0,1-2.73,2.42,9.6,9.6,0,0,1-3.38.66,10.17,10.17,0,0,1-2.46-.31,7.66,7.66,0,0,1-2.36-1,4.66,4.66,0,0,1-1.66-1.89A6.89,6.89,0,0,1,59,18.83a6.32,6.32,0,0,1-.2-1.22q0-.57,0-1.5l0-7.26a2.32,2.32,0,0,0-.44-1.6,3.16,3.16,0,0,0-2.08-.46V5.61H65V6.79A4.68,4.68,0,0,0,63.32,7a1.19,1.19,0,0,0-.72.64,3.37,3.37,0,0,0-.16,1.19v7.26a16.06,16.06,0,0,0,.1,2,6.85,6.85,0,0,0,.35,1.48,3.44,3.44,0,0,0,1.48,1.66,4.4,4.4,0,0,0,2.31.62,5,5,0,0,0,2.51-.66,3.6,3.6,0,0,0,1.62-1.71,6.39,6.39,0,0,0,.47-1.71,18.12,18.12,0,0,0,.1-2.1V9.38a9.91,9.91,0,0,0,0-1.26,1.51,1.51,0,0,0-.28-.73,1.35,1.35,0,0,0-.77-.46,6.16,6.16,0,0,0-1.47-.14V5.61h6.42Z" transform="translate(-0.35 -0.44)"/>
    <path class="a01ae429-8250-4230-9edc-214ed3d54067" d="M100.53,23H91.79V21.86a4.55,4.55,0,0,0,1.66-.22,1.18,1.18,0,0,0,.69-.66,3.68,3.68,0,0,0,.16-1.18V8.87L87.71,23h-.78L80.26,8.87V19.25c0,.55,0,1,0,1.26a1.57,1.57,0,0,0,.3.75,1.45,1.45,0,0,0,.75.45,5.33,5.33,0,0,0,1.43.15V23H76.33V21.86a5.36,5.36,0,0,0,1.44-.15,1.44,1.44,0,0,0,.74-.47,1.47,1.47,0,0,0,.28-.74,12.47,12.47,0,0,0,0-1.25V9.38a8.46,8.46,0,0,0-.11-1.6A1.11,1.11,0,0,0,78.09,7a4.54,4.54,0,0,0-1.76-.25V5.61h6.38l5.79,12.3,5.8-12.3h6.23V6.79a3.11,3.11,0,0,0-2.07.47A2.16,2.16,0,0,0,98,8.85v11A3.64,3.64,0,0,0,98.14,21a1.18,1.18,0,0,0,.71.67,4.53,4.53,0,0,0,1.68.24Z" transform="translate(-0.35 -0.44)"/>
    <path class="a01ae429-8250-4230-9edc-214ed3d54067" d="M117.48,17.31,117.34,23H101.8V21.86a3.08,3.08,0,0,0,2.07-.46,2.22,2.22,0,0,0,.47-1.6v-11a3.5,3.5,0,0,0-.15-1.16A1.18,1.18,0,0,0,103.5,7a4.5,4.5,0,0,0-1.7-.24V5.61h14.47l.23,4.52h-1.18A6,6,0,0,0,114.4,8a2.16,2.16,0,0,0-1.17-.8,10.24,10.24,0,0,0-2-.14H108v6.15h1.78a4.21,4.21,0,0,0,1.36-.16,1,1,0,0,0,.63-.61A5.2,5.2,0,0,0,112,11h1.23v5.8h-1.18a4.21,4.21,0,0,0-.26-1.42,1.06,1.06,0,0,0-.65-.61,4.17,4.17,0,0,0-1.36-.16H108v4.1a13.47,13.47,0,0,0,.06,1.51,1.62,1.62,0,0,0,.27.79,1.27,1.27,0,0,0,.74.45,5.31,5.31,0,0,0,1.44.15h1.4a6.21,6.21,0,0,0,1.69-.23,3.25,3.25,0,0,0,1.58-1.16,6.11,6.11,0,0,0,1.08-2.92Z" transform="translate(-0.35 -0.44)"/>
    <path class="a01ae429-8250-4230-9edc-214ed3d54067" d="M137.51,14.48a8.64,8.64,0,0,1-.64,3.41,7.88,7.88,0,0,1-1.66,2.54A7.18,7.18,0,0,1,133,22a14.8,14.8,0,0,1-6,1.08h-8V21.86a5.1,5.1,0,0,0,1.67-.21,1.2,1.2,0,0,0,.74-.64,3.42,3.42,0,0,0,.17-1.21V8.8a2.22,2.22,0,0,0-.46-1.6,3.23,3.23,0,0,0-2.12-.46V5.53l3.74-.08,1.57,0,1.59,0a25.07,25.07,0,0,1,3.65.23,12.34,12.34,0,0,1,2.74.75,7.68,7.68,0,0,1,2.11,1.29,8.59,8.59,0,0,1,1.63,1.89,9.23,9.23,0,0,1,1,2.31A9.35,9.35,0,0,1,137.51,14.48Zm-4.17-.08a9.1,9.1,0,0,0-1-4.54,5.54,5.54,0,0,0-4.45-2.93q-.87-.09-2.49-.09V19.1a9,9,0,0,0,.1,1.53,1.06,1.06,0,0,0,.61.74,3.73,3.73,0,0,0,1.55.25,4.7,4.7,0,0,0,4.42-2.19A9.71,9.71,0,0,0,133.34,14.4Z" transform="translate(-0.35 -0.44)"/>
    <path class="a01ae429-8250-4230-9edc-214ed3d54067" d="M148.09,23h-8.84V21.86a5.1,5.1,0,0,0,1.67-.21,1.23,1.23,0,0,0,.74-.64,3.42,3.42,0,0,0,.17-1.21v-11a2.22,2.22,0,0,0-.47-1.6,3.28,3.28,0,0,0-2.11-.46V5.61h8.84V6.79a4.76,4.76,0,0,0-1.67.22,1.23,1.23,0,0,0-.74.64,3.15,3.15,0,0,0-.17,1.2v11a3.32,3.32,0,0,0,.16,1.17,1.24,1.24,0,0,0,.72.66,4.72,4.72,0,0,0,1.7.23Z" transform="translate(-0.35 -0.44)"/>
    <path class="a01ae429-8250-4230-9edc-214ed3d54067" d="M166.44,22.86h-1.21a5.93,5.93,0,0,0-.89-2,10.09,10.09,0,0,1-2.23,1.75,6.8,6.8,0,0,1-3.41.73,8.72,8.72,0,0,1-4.37-1.14,8.52,8.52,0,0,1-3.2-3.19,9,9,0,0,1-1.2-4.63,9.52,9.52,0,0,1,.65-3.48A8.8,8.8,0,0,1,152.43,8a8.67,8.67,0,0,1,2.87-2,9.06,9.06,0,0,1,3.64-.72,7.32,7.32,0,0,1,5.4,2.13,7.74,7.74,0,0,0,.56-1.6h1.15l.21,6.41H165a7.81,7.81,0,0,0-1.2-2.9,6.3,6.3,0,0,0-2.08-1.95,5.06,5.06,0,0,0-2.51-.68,4.53,4.53,0,0,0-2.64.81A5.18,5.18,0,0,0,154.76,10a11,11,0,0,0-.67,4.1,12.22,12.22,0,0,0,.56,4,6.17,6.17,0,0,0,1.37,2.4,4.55,4.55,0,0,0,1.64,1.1,4.66,4.66,0,0,0,1.54.28,5.07,5.07,0,0,0,2.85-.84,7.16,7.16,0,0,0,2.07-2.14,8,8,0,0,0,1.08-2.57h1.24Z" transform="translate(-0.35 -0.44)"/>
    <path class="a01ae429-8250-4230-9edc-214ed3d54067" d="M186,23h-8.21V21.86a5.57,5.57,0,0,0,1.52-.15.66.66,0,0,0,.47-.7,2.16,2.16,0,0,0-.15-.78l-.83-2.06h-5.65l-.43,1.13a4.53,4.53,0,0,0-.36,1.38.9.9,0,0,0,.6,1,4.21,4.21,0,0,0,1.4.21V23h-6V21.86a2.53,2.53,0,0,0,1.22-.27,2.65,2.65,0,0,0,1-1,13.87,13.87,0,0,0,1-2.13l5-13.17h1.22l5.31,13.58c.39,1,.67,1.61.85,1.95a1.88,1.88,0,0,0,.75.78,2.58,2.58,0,0,0,1.33.28Zm-7.66-6.13-2.4-6.08-2.29,6.08Z" transform="translate(-0.35 -0.44)"/>
    <path class="a01ae429-8250-4230-9edc-214ed3d54067" d="M202.5,17.22,202.39,23H186.86V21.86a3.12,3.12,0,0,0,2.07-.46,2.26,2.26,0,0,0,.46-1.6v-11a3.34,3.34,0,0,0-.16-1.18,1.18,1.18,0,0,0-.71-.65,4.66,4.66,0,0,0-1.66-.23V5.61h8.76V6.79A4.67,4.67,0,0,0,194,7a1.24,1.24,0,0,0-.73.64,3.15,3.15,0,0,0-.17,1.2v10a8.45,8.45,0,0,0,.11,1.69,1.12,1.12,0,0,0,.63.78,3.87,3.87,0,0,0,1.69.27,13.26,13.26,0,0,0,2.59-.23,4,4,0,0,0,2-1.19,5,5,0,0,0,1.18-3Z" transform="translate(-0.35 -0.44)"/>
  </g>
</svg>
