<?xml version="1.0" encoding="utf-8"?>
<!-- Generator: Adobe Illustrator 22.1.0, SVG Export Plug-In . SVG Version: 6.00 Build 0)  -->
<svg version="1.1" id="Capa_1" xmlns="http://www.w3.org/2000/svg" xmlns:xlink="http://www.w3.org/1999/xlink" x="0px" y="0px"
	 viewBox="0 0 74.8 86.3" style="enable-background:new 0 0 74.8 86.3;" xml:space="preserve">
<g>
	<path d="M25.8,36.9v-6.1H4.3v6.1H5c0.1-0.9,0.2-1.7,0.5-2.2c0.3-0.6,0.6-1,1-1.4c0.4-0.3,1-0.6,1.6-0.7c0.6-0.1,1.3-0.2,2.1-0.2
		h3.1v19.9c0,0.9-0.1,1.5-0.2,2c-0.1,0.5-0.3,0.9-0.5,1.1c-0.2,0.3-0.5,0.4-0.9,0.5C11.3,56,10.9,56,10.5,56H9.6v0.7h11V56h-0.9
		c-0.5,0-0.9,0-1.2-0.1c-0.3-0.1-0.6-0.2-0.9-0.5c-0.2-0.2-0.4-0.6-0.5-1.1c-0.1-0.5-0.2-1.2-0.2-2.1V32.4h3.7c1.5,0,2.6,0.3,3.3,1
		c0.8,0.7,1.2,1.8,1.4,3.5L25.8,36.9L25.8,36.9z"/>
	<path d="M43,60.3c-0.3,0.3-0.6,0.6-0.9,0.8c-0.3,0.2-0.6,0.4-1,0.5c-0.4,0.1-0.8,0.2-1.3,0.2c-0.5,0-1.1,0.1-1.9,0.1h-4.4
		c-0.6,0-1,0-1.3-0.1c-0.3-0.1-0.5-0.2-0.6-0.4c-0.1-0.2-0.2-0.5-0.2-0.9c0-0.4,0-0.9,0-1.5v-8.6H37c0.8,0,1.5,0.1,2,0.2
		c0.5,0.1,0.9,0.3,1.2,0.6c0.3,0.3,0.5,0.7,0.6,1.2c0.1,0.5,0.2,1.1,0.3,1.9h0.7v-9h-0.7c0,0.6-0.1,1.2-0.2,1.7
		c-0.1,0.5-0.3,0.9-0.6,1.2c-0.3,0.3-0.7,0.5-1.2,0.7c-0.5,0.2-1.2,0.2-2,0.2h-5.7V38.7h7.1c0.9,0,1.6,0,2.2,0.1
		c0.6,0.1,1,0.3,1.4,0.6c0.4,0.3,0.7,0.7,0.9,1.3c0.2,0.6,0.4,1.3,0.6,2.2h0.5v-5.7h-20V38h0.9c1.1,0,1.9,0.3,2.3,0.8
		c0.3,0.4,0.5,1.4,0.5,3.1v16.9c0,1.3-0.1,2.1-0.2,2.5c-0.1,0.2-0.2,0.4-0.4,0.6c-0.2,0.2-0.4,0.3-0.6,0.4c-0.2,0.1-0.5,0.2-0.8,0.2
		c-0.3,0.1-0.5,0.1-0.8,0.1h-0.9v0.7h20l2.3-6.5h-0.8C44.6,58.4,43.8,59.6,43,60.3z"/>
	<path d="M69.9,54.5c-0.4-0.1-0.9-0.4-1.3-0.7c-0.4-0.4-0.9-0.9-1.5-1.6c-0.5-0.7-1.2-1.6-2-2.8l-5.6-8.3l5.1-6.6
		c1.1-1.4,1.9-2.3,2.4-2.7c0.5-0.4,1-0.8,1.6-1.1c0.5-0.3,1.3-0.4,2.1-0.5v-0.7h-9.2v0.7c1,0,1.7,0.2,2.2,0.3
		c0.4,0.2,0.6,0.6,0.6,1.1c0,0.2,0,0.3,0,0.4c0,0.1-0.1,0.2-0.1,0.4c-0.1,0.1-0.2,0.3-0.3,0.5c-0.2,0.2-0.4,0.5-0.7,0.9l-4.6,5.9
		l-4-6c-0.6-0.9-0.9-1.6-0.9-2.1c0-0.4,0.2-0.7,0.6-1c0.4-0.3,1.1-0.5,2.1-0.5v-0.7h-12v0.7c0.6,0,1.2,0.1,1.8,0.3
		c0.5,0.1,1.1,0.4,1.6,0.7c0.5,0.4,1.1,0.8,1.6,1.5c0.6,0.6,1.2,1.5,1.9,2.5l5.1,7.5l-6.1,7.7c-0.5,0.7-1,1.3-1.5,1.8
		c-0.5,0.5-1,1-1.5,1.3c-0.5,0.4-1,0.6-1.6,0.8c-0.6,0.2-1.1,0.3-1.8,0.4v0.7h9.2v-0.7c-1,0-1.6-0.2-2-0.5c-0.3-0.3-0.5-0.6-0.5-1
		c0-0.1,0-0.3,0-0.4c0-0.1,0.1-0.2,0.1-0.4c0.1-0.2,0.2-0.3,0.4-0.6c0.2-0.2,0.4-0.5,0.7-0.9l5.5-7l4.4,6.7c0.3,0.4,0.5,0.8,0.7,1
		c0.2,0.2,0.3,0.5,0.4,0.6c0.1,0.2,0.1,0.3,0.2,0.4c0,0.1,0,0.2,0,0.3c0,0.6-0.2,1-0.5,1.3c-0.3,0.3-1,0.5-2.1,0.5v0.7h11.1v-0.7
		C70.9,54.7,70.4,54.6,69.9,54.5z"/>
</g>
</svg>
