<?xml version="1.0" encoding="utf-8"?>
<!-- Generator: Adobe Illustrator 22.1.0, SVG Export Plug-In . SVG Version: 6.00 Build 0)  -->
<svg version="1.1" id="Layer_1" xmlns="http://www.w3.org/2000/svg" xmlns:xlink="http://www.w3.org/1999/xlink" x="0px" y="0px"
	 viewBox="0 0 23.2 32.2" style="enable-background:new 0 0 23.2 32.2;" xml:space="preserve">
<style type="text/css">
	.st0{fill:#444444;}
</style>
<path class="st0" d="M21.2,9.2H1.9C1,9.2,0.3,10,0.3,10.9v10.9c0,0.9,0.7,1.6,1.6,1.6h19.3c0.9,0,1.6-0.7,1.6-1.6V10.9
	C22.9,10,22.1,9.2,21.2,9.2z M13,20.5l-2.8,0v-4.2L8,19l-2.1-2.7v4.2H3.1V12h2.8L8,14.9l2.1-2.8l2.8,0V20.5z M17.2,21.2l-3.5-4.9
	h2.1V12h2.8v4.2h2.1L17.2,21.2L17.2,21.2z"/>
</svg>
