<svg id="Layer_1" data-name="Layer 1" xmlns="http://www.w3.org/2000/svg" viewBox="0 0 258.42 316.63"><defs><style>.cls-1{fill:#1a1a1a;}</style></defs><title>gualotuna-logo</title><path class="cls-1" d="M213.29,189.66,262,176.71v27.72q-.37,20.53-14.11,38a66.79,66.79,0,0,1-34.79,23.34q-16.17,3.93-27-.66-11-4.26-16-12.36-1.51-2.69-2.73-5.16a31,31,0,0,1-1.88-6.77q-1.41-7.84-1.41-31.17,0-23.7,1.41-32.11a47.5,47.5,0,0,1,4.61-14.19q5-10.75,16-21,10.81-10.35,27-14.83,19.85-5.09,32.35,3.06T261.25,155l-22,5.85A20.79,20.79,0,0,0,230,149.28q-7-3.65-16.93-1.19a37.2,37.2,0,0,0-12.6,6.25,38.63,38.63,0,0,0-8.65,9.29,30.13,30.13,0,0,0-5.36,12.72Q185,184,185,204.1t1.5,26.75q1.32,6.75,5.36,10.06a17,17,0,0,0,8.65,4.51q5.26,1.68,12.6-.27a38.71,38.71,0,0,0,28.12-36.32v-7.09l-27.93,7.43Z" transform="translate(-3.58 -7.52)"/><path class="cls-1" d="M91.37,7.52c9.51,16.45,31,20.73,48.56,20.79s39.41-4.09,49.22-20.44c0,5.76.25,11.53.08,17.29-.14,5-.82,9.34-4.31,13.15C178,45.8,166.43,49.48,156.73,51.19a96.51,96.51,0,0,1-33.39-.14c-9.55-1.71-20.77-5.3-27.43-12.77A18.62,18.62,0,0,1,91.22,25.5C91.29,19.51,91.37,13.52,91.37,7.52Z" transform="translate(-3.58 -7.52)"/><path class="cls-1" d="M72.33,135.21,28.85,104.76v69.55l41.76,29.24q12.6,8.82,20.19,6.28t7.59-22.21q0-19.32-7.25-31.82A64,64,0,0,0,72.33,135.21Z" transform="translate(-3.58 -7.52)"/><path class="cls-1" d="M125.13,123.38c0-5.18-1.62-8.27-5.86-11.2C83,87.08,46.84,61.75,10.65,36.5c-1.9-1.33-3.91-2.5-6.6-4.22-.15,3-.34,5.08-.34,7.16q0,96.69-.13,193.39c0,5.15,1.56,8.23,5.84,11.19,36.65,25.34,73.12,51,109.66,76.45,1.55,1.08,3.21,2,6,3.68v-8Q125,219.75,125.13,123.38Zm-32,91.1q-9.59,1.94-22.52-7.14Q62.33,201.55,50,192.56T28.85,177.07v50.21l-4.14-2.9V98.07l47.62,33.34a77.41,77.41,0,0,1,21.58,23.31q8.79,14.35,8.8,35.93Q102.71,212.57,93.13,214.48Z" transform="translate(-3.58 -7.52)"/></svg>