<?xml version="1.0" encoding="utf-8"?>
<!-- Generator: Adobe Illustrator 23.0.1, SVG Export Plug-In . SVG Version: 6.00 Build 0)  -->
<svg version="1.1" id="Layer_1" xmlns="http://www.w3.org/2000/svg" xmlns:xlink="http://www.w3.org/1999/xlink" x="0px" y="0px"
	 viewBox="0 0 66.96 75.89" style="enable-background:new 0 0 66.96 75.89;" xml:space="preserve">
<style type="text/css">
	.st0{fill:#06A2D3;}
</style>
<path class="st0" d="M32.39,75.6c-7.09-3.86-14.01-8-21.01-12.01c-2.95-1.69-5.89-3.39-8.84-5.08C0.82,57.53,0,56.04,0,54.08
	C0,43.2,0,32.32,0,21.44c0-1.92,0.81-3.38,2.49-4.34c8.42-4.84,16.84-9.69,25.26-14.53c1-0.58,2.01-1.15,3-1.75
	c1.82-1.09,3.61-1.07,5.44-0.01c6.05,3.51,12.12,6.99,18.18,10.48c3.33,1.92,6.64,3.84,9.98,5.74c1.77,1.01,2.6,2.5,2.6,4.52
	c-0.01,10.84-0.01,21.68,0,32.52c0,1.97-0.81,3.45-2.53,4.44C56,63.35,47.58,68.19,39.16,73.04c-1.58,0.91-3.11,1.94-4.85,2.55
	C33.37,75.99,33.3,75.99,32.39,75.6z M22.27,37.93c-0.09,1.88,0.2,4,0.79,6.1c2.85,10.1,15.52,11.12,21.03,5.36
	c0.5-0.52,0.59-0.83,0.03-1.34c-0.92-0.83-1.81-1.7-2.66-2.6c-0.54-0.58-0.88-0.49-1.43,0.04c-4.02,3.88-10.02,2.22-11.5-3.18
	c-0.67-2.46-0.58-4.98-0.3-7.5c0.31-2.91,1.56-5.27,4.4-6.32c2.87-1.06,5.52-0.52,7.64,1.82c0.37,0.41,0.63,0.32,0.97-0.02
	c0.9-0.91,1.79-1.83,2.75-2.67c0.7-0.61,0.6-1-0.04-1.6c-3.35-3.18-7.37-3.82-11.7-3.01c-3.42,0.63-6.12,2.46-7.9,5.52
	C22.73,31.34,22.23,34.43,22.27,37.93z"/>
</svg>
