<svg id="ef12c05b-1468-4f85-82da-3c59ea9cf0c9" data-name="EPN_Logo" xmlns="http://www.w3.org/2000/svg" width="6.31cm" height="7.3cm" viewBox="0 0 178.84 206.82">
  <defs>
    <style>
      .f5b42de0-6984-4d91-9288-a62a44e03daa {
        fill: #002b5c;
      }

      .a1f3a07e-47bd-4f7c-939c-b4a881b02e82 {
        fill: #ee3124;
      }

      .b3b0761a-02a0-4bbe-9906-f2e6a0b254a8 {
        fill: none;
      }

      .b358175d-48c2-4cd2-b4d5-7670908a02bf {
        fill: #a6a699;
      }

      .f8b81b34-e6c6-40fe-b138-d7df1f44bfe3 {
        fill: #88746a;
      }

      .fe188c1c-32b7-4655-80a4-e3a1c792882f {
        fill: #fffac4;
      }

      .f221af33-02c4-43d0-9cc4-d44676463776 {
        fill: #f6f1cd;
      }

      .a2cd2a45-8741-4776-86e6-f7c19b285b39 {
        fill: #739dd2;
      }

      .f6aa2981-ffa3-4b36-8dde-2bad9720250f {
        fill: #fdbe57;
      }

      .ba8d695c-4f17-4c57-b7f3-3e10641850f9 {
        fill: #fff;
      }
    </style>
  </defs>
  <title>epn</title>
  <g>
    <path class="f5b42de0-6984-4d91-9288-a62a44e03daa" d="M162.53,72.13H91.83v104s7.83-11.19,32.74-15a108.23,108.23,0,0,1,12.58-.47s22.06-.26,25.38-25Z"/>
    <path class="f5b42de0-6984-4d91-9288-a62a44e03daa" d="M16.09,72.38H86.78v104S79,165.15,54,161.35a114.46,114.46,0,0,0-12.56-.48s-22.07-.23-25.39-25Z"/>
    <path class="a1f3a07e-47bd-4f7c-939c-b4a881b02e82" d="M162.53,0V67.3H16.68V0Z"/>
    <path class="b3b0761a-02a0-4bbe-9906-f2e6a0b254a8" d="M70.48,31.43s0,0,0,0a0,0,0,0,1,0,0h0A.64.64,0,0,0,70.48,31.43Z"/>
    <path class="b358175d-48c2-4cd2-b4d5-7670908a02bf" d="M178.84,162.2s-16,4.73-12.08,1,8-18.95,8-18.95-10.65,17.14-30.74,19.35h0c-3.35.39-5.69,1.21-5.69,2.16v.44c.42,1.22,4.63,2.19,9.78,2.21.6,0,1.19,0,1.76,0l1.06-.1a1.43,1.43,0,0,1,.68.13c.84.38,1.23,1.54,1.12,3a.23.23,0,0,0,.07-.07l-.12,8.7v.24C166.66,177,174.24,169.92,178.84,162.2Z"/>
    <path class="f8b81b34-e6c6-40fe-b138-d7df1f44bfe3" d="M152.78,171.42c.11-1.46-.28-2.62-1.12-3a1.43,1.43,0,0,0-.68-.13l-1.06.1c-.57,0-1.16,0-1.76,0-5.15,0-9.36-1-9.78-2.21l.29,15.23a1,1,0,0,1,.18-.08C145,178.38,149.81,175,152.78,171.42Z"/>
    <path class="b358175d-48c2-4cd2-b4d5-7670908a02bf" d="M26,180.06l-.1-7.49v-1.22l0,.05c-.08-1.45.29-2.58,1.13-2.94a1.53,1.53,0,0,1,.68-.14l1.06.1c.57,0,1.15,0,1.76,0,5.07,0,9.23-1,9.76-2.16V166c0-1-2.33-1.77-5.67-2.15v0C14.62,161.57,4,144.43,4,144.43s4.1,15.21,8,18.94-12-1-12-1c4.57,7.71,12.12,14.76,26,18.1l0-.26Z"/>
    <path class="f8b81b34-e6c6-40fe-b138-d7df1f44bfe3" d="M30.53,168.45c-.61,0-1.19,0-1.76,0l-1.06-.1a1.53,1.53,0,0,0-.68.14c-.84.36-1.21,1.49-1.13,2.94,3,3.53,7.76,6.95,13.94,9.94l.11,0,.07,0,.29-15.18s0,0,0,0C39.76,167.48,35.6,168.43,30.53,168.45Z"/>
    <path class="f5b42de0-6984-4d91-9288-a62a44e03daa" d="M152.85,171.35a.23.23,0,0,1-.07.07c-3,3.55-7.77,7-13.93,9.94a1,1,0,0,0-.18.08c-12.27,5.88-29.86,10-49,10h-.51c-19.22,0-36.82-4.17-49.09-10.06l-.07,0-.11,0c-6.18-3-11-6.41-13.94-9.94l0-.05v1.22l.1,7.49v.16l0,.26.09,7.45c8.36,10.94,33.42,18.89,63,18.89h.51c29.61,0,54.66-7.95,63-18.89l.1-7.64v-.24Z"/>
    <rect class="f8b81b34-e6c6-40fe-b138-d7df1f44bfe3" x="22.17" y="141.46" width="58.23" height="3.27"/>
    <path class="fe188c1c-32b7-4655-80a4-e3a1c792882f" d="M80.38,97.32v.14s0-.09,0-.14Z"/>
    <path class="f221af33-02c4-43d0-9cc4-d44676463776" d="M25.33,135.94a3.87,3.87,0,0,0,2.27-.39s16.13-5.11,23.64,2.37h0c7.51-7.48,23.65-2.37,23.65-2.37a3.83,3.83,0,0,0,2.26.39c2.23,1.5,3.17-.63,3.17-.63l0,4V97.46a1.91,1.91,0,0,1-2,1.41l-1.58-.05h-.93a30.41,30.41,0,0,0-24.56,1h0a30.44,30.44,0,0,0-24.57-1h-.93l-1.47.05a2,2,0,0,1-2.1-1.39v37.85C22.27,135.56,23.23,137.34,25.33,135.94Z"/>
    <path class="b358175d-48c2-4cd2-b4d5-7670908a02bf" d="M80.35,135.31s-.94,2.13-3.17.63a3.83,3.83,0,0,1-2.26-.39s-16.14-5.11-23.65,2.37h0c-7.51-7.48-23.64-2.37-23.64-2.37a3.87,3.87,0,0,1-2.27.39c-2.1,1.4-3.06-.38-3.16-.61v6.13H80.38v-2.19Z"/>
    <path class="b3b0761a-02a0-4bbe-9906-f2e6a0b254a8" d="M69.35,33.24v0L73.74,32a31,31,0,0,1-1.33-7.55,31.37,31.37,0,0,1-3.19-.24s0,0,0,.06A17.91,17.91,0,0,0,69.35,33.24Z"/>
    <path class="b3b0761a-02a0-4bbe-9906-f2e6a0b254a8" d="M70.31,35.83a2.48,2.48,0,0,0,.13.3,16.55,16.55,0,0,0,1.42,2.52,19.52,19.52,0,0,0,3,3.48h0a25.85,25.85,0,0,1,2.63-2,31.38,31.38,0,0,1-3.29-6.58l-4.37,1.26v0C70,35.17,70.16,35.51,70.31,35.83Z"/>
    <path class="b3b0761a-02a0-4bbe-9906-f2e6a0b254a8" d="M78.08,12.27a1.28,1.28,0,0,1-.17.1,6.25,6.25,0,0,0,.82.48c0-.35.09-.71.15-1.06l-.41.22C78.33,12.09,78.21,12.18,78.08,12.27Z"/>
    <path class="b3b0761a-02a0-4bbe-9906-f2e6a0b254a8" d="M84.14,9.7l1.16,3.47a7.78,7.78,0,0,0,2.84-1.79,25,25,0,0,0-2-2.07l-.36,0C85.2,9.45,84.67,9.57,84.14,9.7Z"/>
    <path class="b3b0761a-02a0-4bbe-9906-f2e6a0b254a8" d="M80.72,10.89a22,22,0,0,0-.39,2.55,8.31,8.31,0,0,0,2.06.27,9.79,9.79,0,0,0,1.32-.11l-1.15-3.44c-.5.17-1,.36-1.51.56A2.55,2.55,0,0,0,80.72,10.89Z"/>
    <path class="b3b0761a-02a0-4bbe-9906-f2e6a0b254a8" d="M87.46,47.49h.11A8.47,8.47,0,0,1,88.64,45a40.3,40.3,0,0,1-4.36-6.74,41.52,41.52,0,0,0-4.43,2.34,26.35,26.35,0,0,0,7.44,6.9h.17Z"/>
    <path class="b3b0761a-02a0-4bbe-9906-f2e6a0b254a8" d="M97.69,25l5.51-1.6A29.9,29.9,0,0,0,99.93,17a43.32,43.32,0,0,1-4.62,2.4A52.49,52.49,0,0,1,97.69,25Z"/>
    <path class="b3b0761a-02a0-4bbe-9906-f2e6a0b254a8" d="M72.36,22.78a26.35,26.35,0,0,1,.82-6.28,19.39,19.39,0,0,0-3.49,6.11C70.54,22.7,71.43,22.76,72.36,22.78Z"/>
    <path class="b3b0761a-02a0-4bbe-9906-f2e6a0b254a8" d="M74,22.78a45.84,45.84,0,0,0,5-.42,39.7,39.7,0,0,1-.49-6.09c0-.57,0-1.12,0-1.67a9.31,9.31,0,0,1-2.11-1.23c-.24.19-.5.36-.73.57A23.61,23.61,0,0,0,74,22.78Z"/>
    <path class="b3b0761a-02a0-4bbe-9906-f2e6a0b254a8" d="M98,45.83l.3-.12a27.28,27.28,0,0,0,.44-3.19,8.4,8.4,0,0,0-2-.24,7.83,7.83,0,0,0-1.66.19l1.34,4c.5-.17,1-.37,1.52-.59Z"/>
    <path class="b3b0761a-02a0-4bbe-9906-f2e6a0b254a8" d="M93.33,47.21h0c.31-.05.62-.12.92-.19s.4-.07.59-.13l-1.32-4a8,8,0,0,0-2.83,2A26.88,26.88,0,0,0,93,47.27h.06Z"/>
    <path class="b3b0761a-02a0-4bbe-9906-f2e6a0b254a8" d="M78.47,41.48a24.63,24.63,0,0,0-2.28,1.72,20.88,20.88,0,0,0,7.36,3.6A28.91,28.91,0,0,1,78.47,41.48Z"/>
    <path class="b3b0761a-02a0-4bbe-9906-f2e6a0b254a8" d="M89.52,47.58l1.38-.06c-.38-.39-.77-.77-1.14-1.19a7.13,7.13,0,0,0-.51,1.25h.27Z"/>
    <path class="b3b0761a-02a0-4bbe-9906-f2e6a0b254a8" d="M98,32.31A47.56,47.56,0,0,0,96.63,27l-6.08,1.78,1.61,4.81A57.66,57.66,0,0,1,98,32.31Z"/>
    <path class="b3b0761a-02a0-4bbe-9906-f2e6a0b254a8" d="M92.69,35.2l1.9,5.69a11,11,0,0,1,2.19-.25,10.48,10.48,0,0,1,2,.2c0-.21,0-.41,0-.63a40.44,40.44,0,0,0-.53-6.29A55.33,55.33,0,0,0,92.69,35.2Z"/>
    <path class="b3b0761a-02a0-4bbe-9906-f2e6a0b254a8" d="M85.77,37.58a41.45,41.45,0,0,0,3.91,6.07A9.31,9.31,0,0,1,93,41.39L91.1,35.64Q88.3,36.51,85.77,37.58Z"/>
    <path class="b3b0761a-02a0-4bbe-9906-f2e6a0b254a8" d="M89,29.27l-6,1.76A51.28,51.28,0,0,0,85,36.13a57.19,57.19,0,0,1,5.55-2Z"/>
    <path class="b3b0761a-02a0-4bbe-9906-f2e6a0b254a8" d="M75.83,33.08a30,30,0,0,0,3.09,6.15,42.26,42.26,0,0,1,4.61-2.45,50.46,50.46,0,0,1-2.19-5.29Z"/>
    <path class="b3b0761a-02a0-4bbe-9906-f2e6a0b254a8" d="M103.71,25l-5.5,1.59a51.58,51.58,0,0,1,1.4,5.46,46.74,46.74,0,0,1,5.33-.47A28.82,28.82,0,0,0,103.71,25Z"/>
    <path class="b3b0761a-02a0-4bbe-9906-f2e6a0b254a8" d="M99.91,33.66a42.25,42.25,0,0,1,.55,6.55c0,.39,0,.76,0,1.13a9.19,9.19,0,0,1,2.68,1.59A23.9,23.9,0,0,0,105,33.41c0-.07,0-.13,0-.19A49.52,49.52,0,0,0,99.91,33.66Z"/>
    <path class="b3b0761a-02a0-4bbe-9906-f2e6a0b254a8" d="M79.31,24a47.61,47.61,0,0,1-5.26.44,28.8,28.8,0,0,0,1.27,7.1l5.5-1.6A53.37,53.37,0,0,1,79.31,24Z"/>
    <path class="b3b0761a-02a0-4bbe-9906-f2e6a0b254a8" d="M80.94,23.73a48.36,48.36,0,0,0,1.46,5.74l6-1.76-1.77-5.25A58.35,58.35,0,0,1,80.94,23.73Z"/>
    <path class="b3b0761a-02a0-4bbe-9906-f2e6a0b254a8" d="M96.11,25.49A52.19,52.19,0,0,0,93.81,20c-1.75.72-3.6,1.4-5.54,2L90,27.26Z"/>
    <path class="b3b0761a-02a0-4bbe-9906-f2e6a0b254a8" d="M99,15.63a26.34,26.34,0,0,0-7.45-6.75,8.82,8.82,0,0,1-1.23,2.5,41.75,41.75,0,0,1,4.27,6.52A46.41,46.41,0,0,0,99,15.63Z"/>
    <path class="b3b0761a-02a0-4bbe-9906-f2e6a0b254a8" d="M86.16,20.89l-1.92-5.73a9.7,9.7,0,0,1-1.85.2,10,10,0,0,1-2.18-.24c0,.37,0,.75,0,1.15a39.08,39.08,0,0,0,.47,5.84A53.6,53.6,0,0,0,86.16,20.89Z"/>
    <path class="b3b0761a-02a0-4bbe-9906-f2e6a0b254a8" d="M93.05,18.56a40.07,40.07,0,0,0-3.86-5.92,9.47,9.47,0,0,1-3.36,2.09l1.91,5.71A54.15,54.15,0,0,0,93.05,18.56Z"/>
    <path class="b3b0761a-02a0-4bbe-9906-f2e6a0b254a8" d="M91.48,9l.26,0-.22-.14A.56.56,0,0,1,91.48,9Z"/>
    <path class="a2cd2a45-8741-4776-86e6-f7c19b285b39" d="M100.07,45.1c.6-.34,1.2-.68,1.76-1.07a8.08,8.08,0,0,0-1.5-1C100.26,43.78,100.16,44.45,100.07,45.1Z"/>
    <path class="a2cd2a45-8741-4776-86e6-f7c19b285b39" d="M96.78,42.28a7.83,7.83,0,0,0-1.66.19l1.34,4c.5-.17,1-.37,1.52-.59h0l.3-.12a27.28,27.28,0,0,0,.44-3.19A8.4,8.4,0,0,0,96.78,42.28Z"/>
    <path class="a2cd2a45-8741-4776-86e6-f7c19b285b39" d="M100.37,14.75a25.12,25.12,0,0,0,2.16-1.58,22,22,0,0,0-6.92-3.4A29.68,29.68,0,0,1,100.37,14.75Z"/>
    <path class="a2cd2a45-8741-4776-86e6-f7c19b285b39" d="M106.58,31.56a30.68,30.68,0,0,1,3.43.23,18,18,0,0,0-.39-8.51l-4.34,1.26A30.47,30.47,0,0,1,106.58,31.56Z"/>
    <path class="a2cd2a45-8741-4776-86e6-f7c19b285b39" d="M90.29,11.38a41.75,41.75,0,0,1,4.27,6.52A46.41,46.41,0,0,0,99,15.63,26.21,26.21,0,0,0,91.74,9l-.26,0A8.56,8.56,0,0,1,90.29,11.38Z"/>
    <path class="a2cd2a45-8741-4776-86e6-f7c19b285b39" d="M89.25,47.58h.27l1.38-.06c-.38-.39-.77-.77-1.14-1.19A7.13,7.13,0,0,0,89.25,47.58Z"/>
    <path class="a2cd2a45-8741-4776-86e6-f7c19b285b39" d="M104.79,23l4.32-1.25a19.29,19.29,0,0,0-5.27-7.49,27.15,27.15,0,0,1-2.53,1.86A32.18,32.18,0,0,1,104.79,23Z"/>
    <path class="a2cd2a45-8741-4776-86e6-f7c19b285b39" d="M106.66,33.41a26,26,0,0,1-1,7.19,19.14,19.14,0,0,0,4-7.21c-.93-.09-1.92-.17-3-.18C106.65,33.27,106.66,33.34,106.66,33.41Z"/>
    <path class="a2cd2a45-8741-4776-86e6-f7c19b285b39" d="M78.88,11.79l-.41.22c-.14.08-.26.17-.39.26a1.28,1.28,0,0,1-.17.1,6.25,6.25,0,0,0,.82.48C78.77,12.5,78.82,12.14,78.88,11.79Z"/>
    <path class="a2cd2a45-8741-4776-86e6-f7c19b285b39" d="M79,22.36a39.7,39.7,0,0,1-.49-6.09c0-.57,0-1.12,0-1.67a9.31,9.31,0,0,1-2.11-1.23c-.24.19-.5.36-.73.57A23.61,23.61,0,0,0,74,22.78,45.84,45.84,0,0,0,79,22.36Z"/>
    <path class="a2cd2a45-8741-4776-86e6-f7c19b285b39" d="M82.39,13.71a9.79,9.79,0,0,0,1.32-.11l-1.15-3.44c-.5.17-1,.36-1.51.56a2.55,2.55,0,0,0-.33.17,22,22,0,0,0-.39,2.55A8.31,8.31,0,0,0,82.39,13.71Z"/>
    <path class="a2cd2a45-8741-4776-86e6-f7c19b285b39" d="M88.14,11.38a25,25,0,0,0-2-2.07l-.36,0c-.54.1-1.07.22-1.6.35l1.16,3.47A7.78,7.78,0,0,0,88.14,11.38Z"/>
    <path class="a2cd2a45-8741-4776-86e6-f7c19b285b39" d="M73.18,16.5a19.39,19.39,0,0,0-3.49,6.11c.85.09,1.74.15,2.67.17A26.35,26.35,0,0,1,73.18,16.5Z"/>
    <path class="a2cd2a45-8741-4776-86e6-f7c19b285b39" d="M74.25,33.55l-4.37,1.26v0c.13.34.27.68.42,1a2.48,2.48,0,0,0,.13.3,16.55,16.55,0,0,0,1.42,2.52,19.52,19.52,0,0,0,3,3.48h0a25.85,25.85,0,0,1,2.63-2A31.38,31.38,0,0,1,74.25,33.55Z"/>
    <path class="a2cd2a45-8741-4776-86e6-f7c19b285b39" d="M84.28,38.24a41.52,41.52,0,0,0-4.43,2.34,26.35,26.35,0,0,0,7.44,6.9h.28A8.47,8.47,0,0,1,88.64,45,40.3,40.3,0,0,1,84.28,38.24Z"/>
    <path class="a2cd2a45-8741-4776-86e6-f7c19b285b39" d="M78.47,41.48a24.63,24.63,0,0,0-2.28,1.72,20.88,20.88,0,0,0,7.36,3.6A28.91,28.91,0,0,1,78.47,41.48Z"/>
    <path class="a2cd2a45-8741-4776-86e6-f7c19b285b39" d="M72.41,24.43a31.37,31.37,0,0,1-3.19-.24s0,0,0,.06a17.91,17.91,0,0,0,.14,9v0L73.74,32A31,31,0,0,1,72.41,24.43Z"/>
    <path class="a2cd2a45-8741-4776-86e6-f7c19b285b39" d="M90.72,44.93A26.88,26.88,0,0,0,93,47.27h.06l.25,0h0c.31-.05.62-.12.92-.19s.4-.07.59-.13l-1.32-4A8,8,0,0,0,90.72,44.93Z"/>
    <path class="a2cd2a45-8741-4776-86e6-f7c19b285b39" d="M100.46,40.21c0,.39,0,.76,0,1.13a9.19,9.19,0,0,1,2.68,1.59A23.9,23.9,0,0,0,105,33.41c0-.07,0-.13,0-.19a49.52,49.52,0,0,0-5.1.44A42.25,42.25,0,0,1,100.46,40.21Z"/>
    <path class="a2cd2a45-8741-4776-86e6-f7c19b285b39" d="M98,32.31A47.56,47.56,0,0,0,96.63,27l-6.08,1.78,1.61,4.81A57.66,57.66,0,0,1,98,32.31Z"/>
    <path class="a2cd2a45-8741-4776-86e6-f7c19b285b39" d="M85.77,37.58a41.45,41.45,0,0,0,3.91,6.07A9.31,9.31,0,0,1,93,41.39L91.1,35.64Q88.3,36.51,85.77,37.58Z"/>
    <path class="a2cd2a45-8741-4776-86e6-f7c19b285b39" d="M99.61,32.05a46.74,46.74,0,0,1,5.33-.47A28.82,28.82,0,0,0,103.71,25l-5.5,1.59A51.58,51.58,0,0,1,99.61,32.05Z"/>
    <path class="a2cd2a45-8741-4776-86e6-f7c19b285b39" d="M92.69,35.2l1.9,5.69a11,11,0,0,1,2.19-.25,10.48,10.48,0,0,1,2,.2c0-.21,0-.41,0-.63a40.44,40.44,0,0,0-.53-6.29A55.33,55.33,0,0,0,92.69,35.2Z"/>
    <path class="a2cd2a45-8741-4776-86e6-f7c19b285b39" d="M88.21,9.05c.32.34.65.67,1,1a6.86,6.86,0,0,0,.57-1.19H88.59l0,.13Z"/>
    <path class="a2cd2a45-8741-4776-86e6-f7c19b285b39" d="M87.74,20.44a54.15,54.15,0,0,0,5.31-1.88,40.07,40.07,0,0,0-3.86-5.92,9.47,9.47,0,0,1-3.36,2.09Z"/>
    <path class="a2cd2a45-8741-4776-86e6-f7c19b285b39" d="M103.2,23.43A29.9,29.9,0,0,0,99.93,17a43.32,43.32,0,0,1-4.62,2.4A52.49,52.49,0,0,1,97.69,25Z"/>
    <path class="a2cd2a45-8741-4776-86e6-f7c19b285b39" d="M90,27.26l6.08-1.77A52.19,52.19,0,0,0,93.81,20c-1.75.72-3.6,1.4-5.54,2Z"/>
    <path class="a2cd2a45-8741-4776-86e6-f7c19b285b39" d="M88.45,27.71l-1.77-5.25a58.35,58.35,0,0,1-5.74,1.27,48.36,48.36,0,0,0,1.46,5.74Z"/>
    <path class="a2cd2a45-8741-4776-86e6-f7c19b285b39" d="M86.16,20.89l-1.92-5.73a9.7,9.7,0,0,1-1.85.2,10,10,0,0,1-2.18-.24c0,.37,0,.75,0,1.15a39.08,39.08,0,0,0,.47,5.84A53.6,53.6,0,0,0,86.16,20.89Z"/>
    <path class="a2cd2a45-8741-4776-86e6-f7c19b285b39" d="M79.31,24a47.61,47.61,0,0,1-5.26.44,28.8,28.8,0,0,0,1.27,7.1l5.5-1.6A53.37,53.37,0,0,1,79.31,24Z"/>
    <path class="a2cd2a45-8741-4776-86e6-f7c19b285b39" d="M89,29.27l-6,1.76A51.28,51.28,0,0,0,85,36.13a57.19,57.19,0,0,1,5.55-2Z"/>
    <path class="a2cd2a45-8741-4776-86e6-f7c19b285b39" d="M75.83,33.08a30,30,0,0,0,3.09,6.15,42.26,42.26,0,0,1,4.61-2.45,50.46,50.46,0,0,1-2.19-5.29Z"/>
    <path class="f6aa2981-ffa3-4b36-8dde-2bad9720250f" d="M98.52,45.61l-.23.1-.3.12h0c-.5.22-1,.42-1.52.59h0c-.45.15-.89.29-1.34.4l-.19.06h0c-.19.06-.39.08-.59.13s-.61.14-.92.19h0l-.25,0H93q-.66.12-1.32.18a1.81,1.81,0,0,1-.23,0l-.17,0-.4,0-1.38.06h-.4c-.52,0-1-.05-1.55-.09h-.28a24.63,24.63,0,0,1-2.73-.43l-1-.25a20.88,20.88,0,0,1-7.36-3.6l-.06,0-.77-.65c-.14-.14-.3-.25-.44-.38h0a19.52,19.52,0,0,1-3-3.48,16.55,16.55,0,0,1-1.42-2.52,2.48,2.48,0,0,1-.13-.3c-.15-.32-.29-.66-.42-1v0h0a15.57,15.57,0,0,1-.51-1.5v0l0,0v0a17.91,17.91,0,0,1-.14-9s0,0,0-.06c.12-.5.27-1,.43-1.48a1,1,0,0,1,0-.1,19.39,19.39,0,0,1,3.49-6.11c.23-.28.46-.57.71-.84a19,19,0,0,1,1.86-1.72c.23-.21.49-.38.73-.57.42-.31.84-.61,1.28-.9a.65.65,0,0,0,.15-.1,1.28,1.28,0,0,0,.17-.1c.13-.09.25-.18.39-.26l.41-.22.36-.19.89-.44.28-.13.31-.14a2.55,2.55,0,0,1,.33-.17c.5-.2,1-.39,1.51-.56h0c.52-.17,1-.32,1.54-.46h0c.53-.13,1.06-.25,1.6-.35l.36,0c.57-.1,1.13-.17,1.71-.22l.4,0,.41,0,0-.13L88,6.65A24.92,24.92,0,0,0,77.1,10c-10.95,6.45-14.28,19.85-7.44,30A23.35,23.35,0,0,0,87,49.88v5.31H83.73v3.06H70.94v5.49h36.62V58.25H94.77V55.19H91.55V49.88a24.33,24.33,0,0,0,7.6-1.9l-.32-1.23-.19-.7-.11-.4Z"/>
    <path class="ba8d695c-4f17-4c57-b7f3-3e10641850f9" d="M88.21,9.05l-.4,0c-.58.05-1.14.12-1.71.22a25,25,0,0,1,2,2.07,7.78,7.78,0,0,1-2.84,1.79L84.14,9.7h0c-.52.14-1,.29-1.55.46h0l1.14,3.44a9.79,9.79,0,0,1-1.32.11,8.31,8.31,0,0,1-2.06-.27,22,22,0,0,1,.39-2.55l-.31.14-.28.13-.89.44-.36.19c-.06.35-.11.71-.15,1.06a6.25,6.25,0,0,1-.82-.48.65.65,0,0,1-.15.1c-.44.29-.86.59-1.28.9a9.31,9.31,0,0,0,2.11,1.23c0,.55,0,1.1,0,1.67A39.7,39.7,0,0,0,79,22.36a45.84,45.84,0,0,1-5,.42,23.61,23.61,0,0,1,1.75-8.84,19,19,0,0,0-1.86,1.72c-.25.27-.48.56-.71.84a26.35,26.35,0,0,0-.82,6.28c-.93,0-1.82-.08-2.67-.17a1,1,0,0,0,0,.1c-.16.49-.31,1-.43,1.48a31.37,31.37,0,0,0,3.19.24A31,31,0,0,0,73.74,32l-4.39,1.28,0,0v0a15.57,15.57,0,0,0,.51,1.5h0l4.37-1.26a31.38,31.38,0,0,0,3.29,6.58,25.85,25.85,0,0,0-2.63,2h0c.14.13.3.24.44.38l.77.65.06,0a24.63,24.63,0,0,1,2.28-1.72,28.91,28.91,0,0,0,5.08,5.32l1,.25a24.63,24.63,0,0,0,2.73.43,26.35,26.35,0,0,1-7.44-6.9,41.52,41.52,0,0,1,4.43-2.34A40.3,40.3,0,0,0,88.64,45a8.47,8.47,0,0,0-1.07,2.52c.51,0,1,.08,1.55.09h.13a7.13,7.13,0,0,1,.51-1.25c.37.42.76.8,1.14,1.19l.4,0,.17,0a1.81,1.81,0,0,0,.23,0q.66-.06,1.32-.18a26.88,26.88,0,0,1-2.3-2.34,8,8,0,0,1,2.83-2l1.32,4h0a1.52,1.52,0,0,0,.2-.06c.45-.11.89-.25,1.34-.4h0l-1.32-4a7.83,7.83,0,0,1,1.66-.19,8.4,8.4,0,0,1,2,.24,27.28,27.28,0,0,1-.44,3.19l.23-.1v0l.06.22c.51-.24,1-.5,1.48-.77.09-.65.19-1.32.26-2a8.08,8.08,0,0,1,1.5,1,20.67,20.67,0,0,0,3.83-3.43,26,26,0,0,0,1-7.19c0-.07,0-.14,0-.2,1,0,2,.09,3,.18.16-.52.28-1.06.39-1.6a30.68,30.68,0,0,0-3.43-.23,30.47,30.47,0,0,0-1.3-7l4.34-1.26a6.84,6.84,0,0,0-.21-.74c-.08-.28-.21-.55-.3-.82L104.79,23a32.18,32.18,0,0,0-3.48-6.88,27.15,27.15,0,0,0,2.53-1.86c-.42-.36-.87-.72-1.31-1.06a25.12,25.12,0,0,1-2.16,1.58,29.68,29.68,0,0,0-4.76-5A22.45,22.45,0,0,0,91.74,9,26.21,26.21,0,0,1,99,15.63a46.41,46.41,0,0,1-4.41,2.27,41.75,41.75,0,0,0-4.27-6.52A8.56,8.56,0,0,0,91.48,9c-.57-.06-1.14-.1-1.72-.11a6.86,6.86,0,0,1-.57,1.19C88.86,9.72,88.53,9.39,88.21,9.05Zm-8,6.07a10,10,0,0,0,2.18.24,9.7,9.7,0,0,0,1.85-.2l1.92,5.73a53.6,53.6,0,0,1-5.5,1.22,39.08,39.08,0,0,1-.47-5.84C80.19,15.87,80.21,15.49,80.21,15.12Zm6.47,7.34,1.77,5.25-6,1.76a48.36,48.36,0,0,1-1.46-5.74A58.35,58.35,0,0,0,86.68,22.46Zm-12.63,2A47.61,47.61,0,0,0,79.31,24a53.37,53.37,0,0,0,1.51,5.94l-5.5,1.6A28.8,28.8,0,0,1,74.05,24.42Zm4.87,14.81a30,30,0,0,1-3.09-6.15l5.51-1.59a50.46,50.46,0,0,0,2.19,5.29A42.26,42.26,0,0,0,78.92,39.23Zm4-8.2,6-1.76,1.63,4.83a57.19,57.19,0,0,0-5.55,2A51.28,51.28,0,0,1,82.92,31Zm7.63-2.21L96.63,27A47.56,47.56,0,0,1,98,32.31a57.66,57.66,0,0,0-5.83,1.32Zm-.87,14.83a41.45,41.45,0,0,1-3.91-6.07q2.52-1.06,5.33-1.94L93,41.39A9.31,9.31,0,0,0,89.68,43.65Zm9.12-2.81a10.48,10.48,0,0,0-2-.2,11,11,0,0,0-2.19.25l-1.9-5.69a55.33,55.33,0,0,1,5.6-1.28,40.44,40.44,0,0,1,.53,6.29C98.82,40.43,98.8,40.63,98.8,40.84ZM105,33.41a23.9,23.9,0,0,1-1.92,9.52,9.19,9.19,0,0,0-2.68-1.59c0-.37,0-.74,0-1.13a42.25,42.25,0,0,0-.55-6.55,49.52,49.52,0,0,1,5.1-.44C105,33.28,105,33.34,105,33.41Zm-.09-1.83a46.74,46.74,0,0,0-5.33.47,51.58,51.58,0,0,0-1.4-5.46l5.5-1.59A28.82,28.82,0,0,1,104.94,31.58ZM99.93,17a29.9,29.9,0,0,1,3.27,6.46L97.69,25a52.49,52.49,0,0,0-2.38-5.66A43.32,43.32,0,0,0,99.93,17Zm-3.82,8.52L90,27.26,88.27,22c1.94-.58,3.79-1.26,5.54-2A52.19,52.19,0,0,1,96.11,25.49Zm-3.06-6.93a54.15,54.15,0,0,1-5.31,1.88l-1.91-5.71a9.47,9.47,0,0,0,3.36-2.09A40.07,40.07,0,0,1,93.05,18.56Z"/>
    <polygon class="ba8d695c-4f17-4c57-b7f3-3e10641850f9" points="98.53 45.65 98.64 46.05 98.59 45.87 98.53 45.65"/>
    <path class="f221af33-02c4-43d0-9cc4-d44676463776" d="M40.23,186.88l3.12,1.36-.46,1.07-2-.88-.46,1,2,.88L42,191.4l-2-.89L39.29,192l2,.89L40.87,194l-3.14-1.35Z"/>
    <path class="f221af33-02c4-43d0-9cc4-d44676463776" d="M49,191.11l-1.08.47a1.27,1.27,0,0,0-.69-.91.49.49,0,0,0-.41,0,.34.34,0,0,0-.22.22.42.42,0,0,0,0,.31,8.44,8.44,0,0,0,.58,1.05c.31.49.5.81.56.93A3.59,3.59,0,0,1,48,194a1.81,1.81,0,0,1-.1.75,1.69,1.69,0,0,1-.9,1,2,2,0,0,1-1.47,0,2.16,2.16,0,0,1-1-.67,2.62,2.62,0,0,1-.47-1.25l1.13-.26c.11.63.36,1,.71,1.12a.93.93,0,0,0,.55,0,.58.58,0,0,0,.34-.33.78.78,0,0,0,0-.45,3.31,3.31,0,0,0-.46-.83,6.75,6.75,0,0,1-.84-1.64,1.74,1.74,0,0,1,0-1,1.46,1.46,0,0,1,.83-.91,1.78,1.78,0,0,1,1.29-.06,2.27,2.27,0,0,1,.78.5A3.32,3.32,0,0,1,49,191.11Z"/>
    <path class="f221af33-02c4-43d0-9cc4-d44676463776" d="M55.35,193.14l-1,.54a2.63,2.63,0,0,0-1.62-1.36,2.2,2.2,0,0,0-1.61.2,2.08,2.08,0,0,0-1,1.31,2.32,2.32,0,0,0,0,1.14,1.91,1.91,0,0,0,.54.93,2.3,2.3,0,0,0,1,.56,2.43,2.43,0,0,0,1,.06,3.35,3.35,0,0,0,1.1-.44l.56,1a4.35,4.35,0,0,1-1.5.57,3.39,3.39,0,0,1-1.43-.12,3.19,3.19,0,0,1-2.06-1.5,3.3,3.3,0,0,1-.29-2.54,3.14,3.14,0,0,1,.84-1.49,3,3,0,0,1,1.47-.82,3.58,3.58,0,0,1,1.75,0,3.71,3.71,0,0,1,1.35.7A3.86,3.86,0,0,1,55.35,193.14Z"/>
    <path class="f221af33-02c4-43d0-9cc4-d44676463776" d="M56.32,192.18l1.15.26-1.35,6.11L55,198.29Z"/>
    <path class="f221af33-02c4-43d0-9cc4-d44676463776" d="M58.59,192.7l3.36.65-.23,1.13-2.18-.42-.22,1.11,2.19.43-.21,1.13-2.19-.43-.32,1.61,2.2.42-.23,1.15-3.34-.64Z"/>
    <path class="f221af33-02c4-43d0-9cc4-d44676463776" d="M62.78,193.5l1.12.17,2,4.47.62-4.08,1.18.18-.94,6.19-1.12-.17-2-4.46L63,199.86l-1.17-.18Z"/>
    <path class="f221af33-02c4-43d0-9cc4-d44676463776" d="M68.32,194.31l3.43.38-.12,1.17-1.14-.12-.58,5-1.2-.13.57-5.06-1.09-.14Z"/>
    <path class="f221af33-02c4-43d0-9cc4-d44676463776" d="M72.34,194.76l1.18.11-.58,6.23L71.76,201Z"/>
    <path class="f221af33-02c4-43d0-9cc4-d44676463776" d="M76.56,195.11l1.21.08,2,6.4-1.23-.08-.41-1.32L75.58,200,75,201.28l-1.23-.09Zm.5,1.69-1,2.09,1.64.11Z"/>
    <path class="f221af33-02c4-43d0-9cc4-d44676463776" d="M83.16,195.44l1.22,0,0,2.35,2.09,0,0-2.35h1.19l-.07,6.26h-1.2l0-2.76-2.09,0,0,2.75H83.09Z"/>
    <path class="f221af33-02c4-43d0-9cc4-d44676463776" d="M91.8,195.27a3.14,3.14,0,0,1,2.3.9,3.24,3.24,0,0,1,1,2.33,3.19,3.19,0,0,1-.89,2.34,3.15,3.15,0,0,1-2.26,1,3.1,3.1,0,0,1-2.35-.91,3.22,3.22,0,0,1-1-2.3A3.11,3.11,0,0,1,89,197a3.19,3.19,0,0,1,1.16-1.23A3.12,3.12,0,0,1,91.8,195.27Zm0,1.16a2,2,0,0,0-1.44.65,2,2,0,0,0-.54,1.54,2,2,0,0,0,.77,1.63,2,2,0,0,0,1.33.44,1.91,1.91,0,0,0,1.42-.64,2,2,0,0,0,.56-1.53,2.07,2.07,0,0,0-.62-1.5A2,2,0,0,0,91.82,196.43Z"/>
    <path class="f221af33-02c4-43d0-9cc4-d44676463776" d="M96.47,195.27l1.16-.09,1.76,4.25,1.14-4.46,1.14-.09,1.51,6.18-1.14.09-1-3.9-1,4-1.05.07-1.59-3.85-.41,4-1.14.08Z"/>
    <path class="f221af33-02c4-43d0-9cc4-d44676463776" d="M103.37,194.69l1.18-.11.66,6.22-1.17.14Z"/>
    <path class="f221af33-02c4-43d0-9cc4-d44676463776" d="M105.69,194.47l1.13-.15L110,198l-.56-4.07,1.19-.17.85,6.2-1.13.16-3.21-3.71.55,4.08-1.17.16Z"/>
    <path class="f221af33-02c4-43d0-9cc4-d44676463776" d="M111.75,193.6l1.18-.21,1,6.17-1.15.2Z"/>
    <path class="f221af33-02c4-43d0-9cc4-d44676463776" d="M117.45,193.39l-.72.93a1.23,1.23,0,0,0-1-.44.54.54,0,0,0-.36.2.36.36,0,0,0-.09.3.56.56,0,0,0,.17.27,7.43,7.43,0,0,0,1,.63l1,.53a2.36,2.36,0,0,1,.64.61,1.79,1.79,0,0,1,0,2,1.9,1.9,0,0,1-1.26.77,2.11,2.11,0,0,1-1.2-.09,2.75,2.75,0,0,1-1-.85l.86-.78c.4.48.79.69,1.19.61a.78.78,0,0,0,.46-.28.53.53,0,0,0,.12-.44.73.73,0,0,0-.23-.39,6,6,0,0,0-.81-.5,6.1,6.1,0,0,1-1.53-1,1.45,1.45,0,0,1-.47-.81,1.42,1.42,0,0,1,.27-1.19,1.63,1.63,0,0,1,1.1-.7,1.87,1.87,0,0,1,.91,0A3.39,3.39,0,0,1,117.45,193.39Z"/>
    <path class="f221af33-02c4-43d0-9cc4-d44676463776" d="M123.88,191.81l-.65,1a1.23,1.23,0,0,0-1.07-.39.62.62,0,0,0-.35.23.33.33,0,0,0-.06.3.5.5,0,0,0,.17.26,8.32,8.32,0,0,0,1,.55c.54.25.86.43,1,.5a2.48,2.48,0,0,1,.68.54,2.27,2.27,0,0,1,.33.68,1.62,1.62,0,0,1-.21,1.36,1.92,1.92,0,0,1-1.21.84,2,2,0,0,1-1.2,0,2.66,2.66,0,0,1-1.07-.78l.81-.84a1.26,1.26,0,0,0,1.21.55.82.82,0,0,0,.45-.3.61.61,0,0,0,.1-.46.84.84,0,0,0-.26-.38,6.51,6.51,0,0,0-.84-.45,7.1,7.1,0,0,1-1.6-.91,1.56,1.56,0,0,1-.5-.79,1.47,1.47,0,0,1,.19-1.21,1.71,1.71,0,0,1,1.06-.76,1.91,1.91,0,0,1,.92,0A3.32,3.32,0,0,1,123.88,191.81Z"/>
    <path class="f221af33-02c4-43d0-9cc4-d44676463776" d="M126.36,190.18l1.15-.37L131.7,195l-1.17.38-.86-1.09-2.42.79-.1,1.39-1.17.37Zm1.09,1.38-.13,2.31,1.57-.51Z"/>
    <path class="f221af33-02c4-43d0-9cc4-d44676463776" d="M130.28,188.85l1.11-.43,1.87,4.76,1.61-.63.41,1.06-2.72,1.06Z"/>
    <path class="f221af33-02c4-43d0-9cc4-d44676463776" d="M133.4,187.63l1.08-.51,1.73,3.66a2.69,2.69,0,0,0,.39.63,1,1,0,0,0,.41.19,1.12,1.12,0,0,0,.53-.11.89.89,0,0,0,.42-.36.9.9,0,0,0,.13-.47,2.61,2.61,0,0,0-.29-.8l-1.66-3.54,1.07-.51,1.61,3.39a5.27,5.27,0,0,1,.46,1.22,1.73,1.73,0,0,1-.07.8,1.91,1.91,0,0,1-.4.76,2.4,2.4,0,0,1-.76.53,2.15,2.15,0,0,1-1.19.23,1.8,1.8,0,0,1-1-.4A3.83,3.83,0,0,1,135,191Z"/>
    <path class="f221af33-02c4-43d0-9cc4-d44676463776" d="M142,184.32l-.5,1.06a1.27,1.27,0,0,0-1.12-.22.59.59,0,0,0-.3.28.34.34,0,0,0,0,.31.46.46,0,0,0,.21.23,10.69,10.69,0,0,0,1.11.39c.56.17.91.29,1,.35a2.6,2.6,0,0,1,.75.43,2.36,2.36,0,0,1,.43.62,1.66,1.66,0,0,1,0,1.38,2,2,0,0,1-1.08,1,2.07,2.07,0,0,1-1.19.15,2.65,2.65,0,0,1-1.17-.61l.67-.95a1.28,1.28,0,0,0,1.28.36.85.85,0,0,0,.4-.37.58.58,0,0,0,0-.46.72.72,0,0,0-.31-.34,5.77,5.77,0,0,0-.9-.32,7.26,7.26,0,0,1-1.71-.66,1.59,1.59,0,0,1-.62-.71,1.47,1.47,0,0,1,0-1.23,1.71,1.71,0,0,1,.94-.91,1.82,1.82,0,0,1,.9-.15A3.45,3.45,0,0,1,142,184.32Z"/>
    <path class="f6aa2981-ffa3-4b36-8dde-2bad9720250f" d="M146.74,124.46h8.8v-9.53h-8.7a21.1,21.1,0,0,0-2.36-6l6.06-6.06-6.73-6.74-5.95,5.95a19.34,19.34,0,0,0-6.13-2.53V91.12h-9.52V100a19.31,19.31,0,0,0-5.54,2.72l-6.54-6.55-6.74,6.73,7,7a20.59,20.59,0,0,0-1.81,5H98.39v9.53h10.33a20.69,20.69,0,0,0,1.84,4.91l-7.17,7.16,6.74,6.74,6.77-6.77a19.28,19.28,0,0,0,5.31,2.55v9.22h9.52v-8.81a18.85,18.85,0,0,0,5.89-2.38l6.19,6.19,6.73-6.74-6.21-6.2A20.35,20.35,0,0,0,146.74,124.46Z"/>
    <path class="f5b42de0-6984-4d91-9288-a62a44e03daa" d="M127.73,106.36a13.15,13.15,0,1,0,12.76,13.14A13,13,0,0,0,127.73,106.36Zm-.19,21.33a8.38,8.38,0,1,1,8.38-8.38A8.38,8.38,0,0,1,127.54,127.69Z"/>
    <path class="f5b42de0-6984-4d91-9288-a62a44e03daa" d="M132.49,119.41a4.76,4.76,0,1,1-4.76-4.57A4.67,4.67,0,0,1,132.49,119.41Z"/>
  </g>
</svg>
