<?xml version="1.0" encoding="utf-8"?>
<!-- Generator: Adobe Illustrator 22.1.0, SVG Export Plug-In . SVG Version: 6.00 Build 0)  -->
<svg version="1.1" id="Layer_1" xmlns="http://www.w3.org/2000/svg" xmlns:xlink="http://www.w3.org/1999/xlink" x="0px" y="0px"
	 viewBox="0 0 69.1 69.2" style="enable-background:new 0 0 69.1 69.2;" xml:space="preserve">
<style type="text/css">
	.st0{fill:#F9DD34;}
	.st1{fill:#FEFEFE;}
	.st2{fill:#373633;}
</style>
<g>
	<path class="st0" d="M69.1,69.1c-22.7,0-45.4,0-68.2,0c-0.8,0-1-0.2-1-1C0,45.5,0,22.7,0,0c22.5,0,45.1,0,67.6,0
		c1.2,0,1.5,0.3,1.5,1.5C69.1,24,69.1,46.6,69.1,69.1z M60,23c-1.9,0-3.5,0-5.1,0c-0.9,0-1.5,0.2-2,1c-0.8,1.2-1.8,2.4-2.6,3.6
		c-1.8,2.5-3.8,4.7-5.1,7.5c-2.4,5.2,0.1,10.5,5.6,11.9c2.2,0.6,4.4,0.5,6.6-0.2c4.3-1.3,6.6-5.4,5.7-9.7c-0.9-3.9-4.6-6.3-9-5.7
		c-0.3,0-0.5,0.2-0.7-0.1C55.8,28.9,57.7,25.9,60,23z M7,34.9c0,3.6,0,7.2,0,10.8c0,1,0.3,1.2,1.2,1.2c3.9,0,7.8,0,11.8,0
		c3.3,0,3.2,0,3.2-3.3c0-0.9-0.3-1.1-1.1-1.1c-3.1,0-6.2,0-9.2,0c-0.7,0-1-0.2-1-0.9c0.1-1.3,0-2.6,0-4c0-0.7,0.3-0.9,0.9-0.9
		c1.9,0,3.8,0,5.6,0c3.1,0,3,0,3-3.1c0-0.8-0.3-1.1-1.1-1.1c-2.5,0-5,0-7.4,0c-0.8,0-1.1-0.2-1-1c0.1-1.1,0-2.2,0-3.4
		c0-0.7,0.3-0.9,0.9-0.9c2.2,0,4.5,0,6.7,0c3.3,0,3.2,0,3.2-3.2c0-0.9-0.3-1.1-1.1-1.1c-4.5,0-9,0-13.4,0c-1,0-1.2,0.4-1.2,1.2
		C7,27.8,7,31.3,7,34.9z M34,47.1c0.7,0,1.7-0.1,2.6-0.3c2.6-0.7,4.6-2.1,5.2-4.9c0.6-3-0.1-5.6-2.7-7.4c-1.4-1-2.9-1.6-4.5-2.3
		c-0.9-0.4-1.8-0.7-2.5-1.4c-0.7-0.6-1-1.5-0.7-2.4c0.3-0.9,1-1.3,1.9-1.4c1.3-0.1,2.3,0.4,3,1.4c0.3,0.5,0.6,0.6,1.1,0.2
		c0.8-0.6,1.6-1.1,2.4-1.6c0.7-0.4,0.6-0.7,0.2-1.3c-2.1-2.9-5-3.5-8.3-2.9c-3.5,0.6-5.7,3.6-5.3,7.1c0.2,2.3,1.4,4,3.4,5.3
		c1.8,1.1,3.8,1.7,5.6,2.7c1.3,0.8,1.9,1.7,1.6,2.8c-0.2,1-1.2,1.7-2.7,1.9c-2.1,0.2-3.7-0.5-4.9-2.2c-0.4-0.6-0.7-0.7-1.3-0.3
		c-0.8,0.5-1.6,1-2.4,1.4C25,42,25,42.4,25.4,43C27.4,46,30.3,47.1,34,47.1z"/>
	<path class="st1" d="M69.1,69.1c0-22.5,0-45.1,0-67.6c0-1.2-0.3-1.5-1.5-1.5C45.1,0,22.6,0,0,0c-0.1-0.4,0.2-0.2,0.4-0.2
		c22.8,0,45.6,0,68.4,0c0.9,0,0.6,0.5,0.6,0.9c0,12.5,0,25,0,37.4c0,10,0,20.1,0,30.1C69.4,68.5,69.6,68.9,69.1,69.1z"/>
	<path class="st2" d="M60,23c-2.4,3-4.2,5.9-6.6,8.4c0.2,0.3,0.4,0.2,0.7,0.1c4.4-0.6,8.1,1.7,9,5.7c1,4.3-1.4,8.3-5.7,9.7
		c-2.2,0.7-4.4,0.7-6.6,0.2c-5.5-1.4-8-6.7-5.6-11.9c1.3-2.8,3.4-5.1,5.1-7.5c0.9-1.2,1.8-2.3,2.6-3.6c0.5-0.8,1.1-1,2-1
		C56.5,23,58.1,23,60,23z M53.8,35.5c-2.2,0-3.8,1.5-3.8,3.6c0,2.1,1.6,3.6,3.8,3.6c2.1,0,3.7-1.5,3.8-3.5
		C57.6,37,56,35.5,53.8,35.5z"/>
	<path class="st2" d="M7,34.9c0-3.5,0-7,0-10.6c0-0.9,0.1-1.3,1.2-1.2c4.5,0.1,9,0,13.4,0c0.8,0,1.1,0.2,1.1,1.1
		c0,3.2,0,3.2-3.2,3.2c-2.2,0-4.5,0-6.7,0c-0.7,0-0.9,0.2-0.9,0.9c0,1.1,0.1,2.2,0,3.4c0,0.8,0.2,1,1,1c2.5,0,5,0,7.4,0
		c0.8,0,1.1,0.2,1.1,1.1c0,3.1,0.1,3.1-3,3.1c-1.9,0-3.8,0-5.6,0c-0.7,0-0.9,0.2-0.9,0.9c0,1.3,0.1,2.6,0,4c0,0.8,0.3,0.9,1,0.9
		c3.1,0,6.2,0,9.2,0c0.8,0,1.1,0.2,1.1,1.1c0,3.3,0,3.3-3.2,3.3c-3.9,0-7.8,0-11.8,0c-0.9,0-1.2-0.2-1.2-1.2C7,42.1,7,38.5,7,34.9z"
		/>
	<path class="st2" d="M34,47.1c-3.7-0.1-6.5-1.2-8.6-4.1c-0.4-0.6-0.4-1,0.3-1.4c0.8-0.4,1.6-0.9,2.4-1.4c0.6-0.4,0.9-0.3,1.3,0.3
		c1.2,1.7,2.8,2.4,4.9,2.2c1.4-0.1,2.4-0.9,2.7-1.9c0.3-1.1-0.3-2-1.6-2.8c-1.8-1-3.8-1.6-5.6-2.7c-1.9-1.2-3.1-3-3.4-5.3
		c-0.4-3.6,1.8-6.5,5.3-7.1c3.3-0.6,6.2,0,8.3,2.9c0.4,0.6,0.5,0.9-0.2,1.3c-0.8,0.5-1.6,1-2.4,1.6c-0.5,0.4-0.8,0.3-1.1-0.2
		c-0.7-1.1-1.7-1.5-3-1.4c-0.9,0.1-1.6,0.5-1.9,1.4c-0.3,0.9-0.1,1.7,0.7,2.4c0.7,0.6,1.6,1,2.5,1.4c1.5,0.6,3.1,1.3,4.5,2.3
		c2.6,1.8,3.3,4.4,2.7,7.4c-0.6,2.8-2.5,4.2-5.2,4.9C35.7,47.1,34.7,47.1,34,47.1z"/>
	<path class="st0" d="M53.8,35.5c2.2,0,3.8,1.6,3.7,3.6c0,2-1.6,3.5-3.8,3.5c-2.2,0-3.8-1.6-3.8-3.6C50,36.9,51.6,35.5,53.8,35.5z"
		/>
</g>
</svg>
