<svg id="5890a0c9-7971-4fb8-abe8-5d81164250d5" data-name="Layer 1" xmlns="http://www.w3.org/2000/svg" width="258.42" height="316.63" viewBox="0 0 258.42 316.63">
  <defs>
    <style>
      .\35 02edc54-880f-48a6-bc57-f101dc6e6074 {
        fill: #1a1a1a;
      }
    </style>
  </defs>
  <title>gualotuna-logo</title>
  <path class="502edc54-880f-48a6-bc57-f101dc6e6074" d="M209.71,182.14l48.71-12.95v27.72q-.37,20.53-14.11,38a66.79,66.79,0,0,1-34.79,23.34q-16.17,3.93-27-.66-11-4.26-16-12.36-1.52-2.68-2.73-5.16a31.21,31.21,0,0,1-1.88-6.77q-1.41-7.85-1.41-31.17,0-23.7,1.41-32.11a47.7,47.7,0,0,1,4.61-14.19q5-10.76,16-21,10.81-10.35,27-14.83,19.85-5.09,32.35,3.06t15.8,24.42l-22,5.85a20.8,20.8,0,0,0-9.25-11.57q-7-3.64-16.93-1.19a37,37,0,0,0-12.6,6.25,38.59,38.59,0,0,0-8.65,9.29,30.11,30.11,0,0,0-5.36,12.72q-1.45,7.65-1.46,27.75t1.5,26.75q1.32,6.75,5.36,10.06a17,17,0,0,0,8.65,4.51q5.26,1.68,12.6-.27a38.71,38.71,0,0,0,28.12-36.32v-7.09l-27.93,7.43Z" transform="translate(0 0)"/>
  <path class="502edc54-880f-48a6-bc57-f101dc6e6074" d="M.47,24.76c-.15,3-.34,5.08-.34,7.16q0,96.69-.13,193.39c0,5.15,1.56,8.23,5.84,11.19C42.49,261.84,79,287.5,115.5,313c1.55,1.08,3.21,2,6,3.68v-8q0-96.36.1-192.73c0-5.18-1.62-8.27-5.86-11.2Q61.26,67,7.07,29C5.17,27.65,3.16,26.48.47,24.76Z" transform="translate(0 0)"/>
  <path class="502edc54-880f-48a6-bc57-f101dc6e6074" d="M87.79,0c9.51,16.45,31,20.73,48.56,20.79S175.76,16.7,185.57.35c0,5.76.25,11.53.08,17.29-.14,5-.82,9.34-4.31,13.15-6.92,7.49-18.49,11.17-28.19,12.88a96.51,96.51,0,0,1-33.39-.14c-9.55-1.71-20.77-5.3-27.43-12.77A18.61,18.61,0,0,1,87.64,18C87.71,12,87.79,6,87.79,0Z" transform="translate(0 0)"/>
</svg>
