<?xml version="1.0" encoding="utf-8"?>
<!-- Generator: Adobe Illustrator 23.0.1, SVG Export Plug-In . SVG Version: 6.00 Build 0)  -->
<svg version="1.1" id="Layer_1" xmlns="http://www.w3.org/2000/svg" xmlns:xlink="http://www.w3.org/1999/xlink" x="0px" y="0px"
	 viewBox="0 0 256.5 319.85" style="enable-background:new 0 0 256.5 319.85;" xml:space="preserve">
<style type="text/css">
	.st0{fill:#009D4B;}
</style>
<g transform="translate(0.000000,1280.000000) scale(0.100000,-0.100000)">
	<path class="st0" d="M1253,12796.24c-32.75-8.75-63.75-32.5-78.5-60c-36.25-67.5-1.75-153.5,71.25-176.5c21-6.75,52.5-6.75,73.5,0
		c50.25,16,85.75,64.25,85.75,116.75c0,35-11.5,62.75-36.25,87.5C1338.5,12794.24,1292.75,12806.99,1253,12796.24z"/>
	<path class="st0" d="M827.5,12788.99c-49.5-6-85-16.75-121.75-36.25c-56.5-30.25-111-66.25-248.25-164.75
		c-182-130.25-270-183.75-392.5-238.5c-54-24-65-30-65-35c0-8,12-20.75,26.5-28.25c22.5-11.5,50.75-15,91-11.25
		c52.75,5.25,76.5,12,130.25,37.25c75.25,35.25,208.25,116.5,289.75,176.75c30.75,22.75,79.75,71,94.5,92.75
		c12.75,19.25,17.25,23.75,21.5,22c2.75-1,3.5-8.5,3.5-33c0.25-49,10.25-87.5,32.5-124c13.25-22,48-56,69-67.75
		c36.75-20.5,63.75-26.75,113.5-26.5c32.75,0,33,0,33-5.75c0-3-3.25-8.75-7.5-12.75c-14.5-14-16-35.25-4-62.25
		c27.5-62.25,103-115.75,174.75-124.25c36.5-4.25,85.75,4,116.75,19.5l13.75,7l-0.75,37.5c-1.5,90.25-3.75,154-5.5,155
		c-1,0.75-10.75-1-21.5-3.75c-60.75-15.5-112-5-144.25,30c-16.25,17.5-26,36.75-28.75,56.75c-3.25,24.75-1.25,29.25,26.75,56.25
		c44.5,43,60,70.5,62.25,109.5c0.75,15-0.25,26.25-3,37.5c-8.25,32-31,72.25-53,93.25
		C992.25,12783.24,914.5,12799.74,827.5,12788.99z"/>
	<path class="st0" d="M1641.25,12789.99c-25.5-3.25-60-13.75-79.25-24c-28.75-15.5-50.25-40.5-68.5-79
		c-12.5-26.75-16.75-46.5-15.5-71.75c2.25-39,17.75-66.5,62.25-109.5c28-27,30-31.5,26.75-56.25c-2.75-20-12.5-39.25-28.75-56.75
		c-32.25-35-83.5-45.5-144.25-30c-10.75,2.75-20.5,4.5-21.5,3.75c-1.75-1-4-64.75-5.5-155l-0.75-37.5l13.75-7
		c31-15.5,80.25-23.75,116.75-19.5c71.75,8.5,147.25,62,174.75,124.25c12,27,10.5,48.25-4,62.25c-4.25,4-7.5,9.75-7.5,12.75
		c0,5.75,0.25,5.75,33.25,5.75c49.5-0.25,76.5,6,113.25,26.5c21,11.75,55.75,45.75,69,67.75c22.25,36.5,32.25,75,32.5,124
		c0,42.5,3,43.75,25,11c14.75-21.75,63.75-70,94.5-92.75c81.5-60.25,214.5-141.5,289.75-176.75c53.75-25.25,77.5-32,130.25-37.25
		c40.25-3.75,68.5-0.25,91,11.25c14.5,7.5,26.5,20.25,26.5,28.25c0,5-11,11-65,35c-122.5,54.75-210.5,108.25-392.5,238.5
		c-110,79-141.5,100.5-188,129.25c-45.25,28.25-79,46.25-98.5,53C1768.75,12788.49,1694.75,12796.49,1641.25,12789.99z"/>
	<path class="st0" d="M1201.75,12533.49c-0.75-1.25-0.25-40.75,1-88.25c1-47.5,3.25-134.5,4.75-193.75c1.5-59,3.75-150.75,5-203.75
		s3.5-149,5-213.75c1.5-64.5,2.75-123.5,3.25-130.75c0.25-8.25-0.5-13-2.25-13c-6,0-63.25,18.75-89.5,29.25
		c-68,27.25-111.75,59-139.25,100.5c-18.5,28-25.25,51.25-26.75,93.5c-1.25,42.5-0.25,44.75,16.5,29
		c6.5-6.25,14.75-13.25,18.25-15.5c25-15.25,69.5-19,97.75-8.25c42.75,16.25,78,47,81.25,71c1,8.25,0.25,11-6.75,18.75
		c-17.5,20-51.25,30.25-100,30.25c-68.25,0-110.75-15.75-152-56.5c-37-36.5-55.75-80-55.75-129.5c0.25-57,25.5-110.5,76-161.25
		c35.75-35.75,71.25-61.5,128.75-93.75l20.75-11.75l-22-16c-26.75-19.5-63-55-79-78c-55.5-78.25-64-168-25.25-260
		c26-61.5,71.5-111.5,152-166.5l21.75-14.75l-20-14c-75.75-53-116.5-105-132-168.25c-5.75-24.25-5.75-73.25,0.25-102
		c17.25-83,61.75-157,129-215l22.5-19.5l-13.25-14c-43.25-45.75-64.25-95.5-64.25-152.75c0-80,31.5-128.75,134-206.75l7.25-5.5
		l-20.5-19c-49.75-46-70.75-87.75-70.75-140.25c0-38.25,11.25-72.75,34.75-106.75c16.25-23.5,27-34,29-28.75c1,2.25-1.25,21-4.75,42
		c-7.5,43.5-8,63-2.75,83.25c5.75,22.5,15,38,35,59c17.75,18.5,57.5,49.75,60.25,47c1.25-1.25,3.75-83.25,8.5-298
		c1.75-68.75,3.75-139.5,4.5-157.5l1.75-32.5h8.75h8.75l1.75,30c0.75,16.5,2.75,86.75,4.5,156.25c4.75,209.75,7.25,300.5,8.5,301.75
		c3,3,34-21,58.5-45c14-13.75,20.75-23,28.75-39l10.5-21v-30.25c0-21.25-1.75-39.5-6-61c-3.25-16.75-5-32.25-4.25-34.75
		c1.5-3.5,2.75-3,9,3c10.75,10.5,31.75,41.25,39,57.75c12.75,29,16.75,49.5,15.5,81c-2.25,52.5-21.25,88.75-69.25,132.25
		c-11.25,10-20.25,19-20.25,20c0,1.25,9.75,9.5,22,18.5c84.5,63.75,118,118.5,118.25,194.25c0,56.5-21.25,107-64.5,152.75l-13.25,14
		l24.75,21.5c65.75,57.5,108,127.75,127,212c6.5,28,5.75,82.5-1.5,108.5c-16.25,60.5-55,109.25-126.75,160l-23.5,16.75l21.5,14.75
		c41.5,28.5,84,64.75,105,89.75c30.25,36.25,55.5,87.25,65.25,132.5c6.5,30.75,6,89-1.25,115.5
		c-17.25,63.75-60.25,123-121.25,166.75l-22,16l27.25,15.25c133,75.5,198.5,159.5,198.25,253.75
		c-0.25,84.25-64.5,160.5-150.5,179.25c-26.75,5.75-86,5.75-107.25,0.25c-22.75-6-40.75-15.5-50-26c-6.75-7.75-7.75-10.5-6.75-18.5
		c3.25-24,40.25-56.25,82.5-72c19.75-7.25,53.25-7.25,74.5-0.25c19,6.5,25.25,10.5,40.25,24.5c6.25,6,12.75,10.25,14.25,9.5
		c5-3.25,3.5-58-2.25-80.5c-13.5-53.75-50-95.5-112.5-129.25c-32.25-17.25-94.5-41-137.25-52c-2.5-0.75-3.25,4-3,24
		c0.5,30.75,12.75,539.25,17.75,729.75c1.25,48.25,1.75,88.5,1,89.5C1362,12535.74,1203.25,12535.99,1201.75,12533.49z
		 M1229.75,11333.49c1.5-78.25,3.5-148,4-155.5c1.25-11.5,0.75-13-2.75-11.75c-12,4.5-35.25,22.75-57.25,45
		c-38,38.25-53.75,72.25-53.75,115.25c0,38.5,12.75,68.25,43.5,100.5c15.75,16.75,55.25,47.5,61.75,48
		C1226,11475.24,1228,11411.49,1229.75,11333.49z M1361,11461.74c35.25-23.5,65-57.75,76.75-88.25c7.5-20,9.25-58.5,3.75-80.5
		c-8.5-33.5-29.5-65.5-61.25-93.5c-16-14.25-44.25-34.25-48.25-34.25c-1.25,0-1.5,4.25-0.75,9.5c0.5,5,2.5,74.75,4,155
		c1.75,80,3.5,145.5,4.25,145.5S1349.75,11469.24,1361,11461.74z M1244.5,10748.99c1.25-48,1.75-88,1.5-88.5
		c-1.25-1.75-32.25,21.75-43.25,32.5c-28.25,28.5-45.25,67-45.25,103.5c0,41.75,16.75,72.25,60.5,110.5l20.75,18l1.75-44.25
		C1241.5,10856.49,1243.25,10797.24,1244.5,10748.99z M1368.25,10886.74c12-12.25,20-23.75,27.25-38.25
		c9.25-18.5,10.5-23.5,11.5-42.5c2.25-41.75-13.75-81.75-44.75-113c-10.75-10.75-42-34.25-43-32.5c-0.5,0.5,0.75,52.25,2.25,114.75
		c1.75,62.5,3.25,122,3.25,132l0.25,18.5l13.25-10.75C1345.25,10908.99,1359,10896.24,1368.25,10886.74z M1254.5,10330.74
		c1-36,1.25-65.5,0.5-65.5c-3.5,0.25-29,36-35.75,50c-6.25,13.5-7.75,19.5-7.75,35c-0.25,23.5,6.5,38,26,57.5l13.75,13.75l0.75-12.5
		C1252.25,10402.24,1253.5,10366.99,1254.5,10330.74z M1332.25,10403.74c16.25-18.5,21.5-31.75,21.5-53.5c0-25.25-7.5-41.5-35-75.75
		c-4-5-8-9.25-8.75-9.25s-0.5,23.25,0.25,51.75c1,28.75,1.75,63.5,2,77.75c0.25,24.5,0.5,25.5,5,23.25
		C1319.75,10416.49,1326.5,10410.24,1332.25,10403.74z"/>
	<path class="st0" d="M608.25,12518.49c-4.25-2.5-22.25-17-40-32.5c-125-109-225.75-177.75-323-220.5
		c-33.5-15-39.25-20.5-32.5-32.25c5.5-10.25,18.5-15.25,48-18.25c62.5-6.25,106,7.25,194.25,59.5c82.25,49,191.25,131.25,201,152
		c4.25,8.75,4.25,9-5.5,30.75c-8.75,19-13,31.5-20.5,58C628,12523.24,619,12524.49,608.25,12518.49z"/>
	<path class="st0" d="M1935,12516.24c-1.5-3.5-2.5-7.75-2.5-9.5c0-5.25-9-30-18.75-51.5c-9-19.75-9-20-4.75-28.75
		c9.75-20.75,118.75-103,201-152c88.25-52.25,131.75-65.75,194.25-59.5c29.5,3,42.5,8,48,18.25c6.75,11.75,1,17.25-32.5,32.25
		c-100,44-197.75,111.5-338.25,233.25C1952.25,12524.24,1939.75,12528.99,1935,12516.24z"/>
	<path class="st0" d="M665,12403.49c-2-1-20.5-17.75-41.25-37.75c-72-69.75-122.5-107.75-207-156.5l-29.5-17.25l0.75-8.75
		c0.75-8.25,1.75-9.25,12-12.5c15.5-4.75,64.75-5.25,85-0.75c38.25,8.25,80.75,30.25,130.5,67c37.5,27.75,118.25,95.5,122.25,102.5
		c4.75,9-0.25,16-18.75,27c-9.25,5.25-22.75,16.25-30.25,24.25C675.5,12404.99,672.75,12406.24,665,12403.49z"/>
	<path class="st0" d="M1876.5,12390.99c-7.75-8.25-21.25-19.25-30.5-24.5c-18.5-11-23.5-18-18.75-27c4-7,84.75-74.75,122.25-102.5
		c49.75-36.75,92.25-58.75,130.5-67c20.25-4.5,69.5-4,85,0.75c10.25,3.25,11.25,4.25,12,12.5l0.75,8.75l-29.5,17.25
		c-85.25,49.25-135.25,87-207.25,156.75c-20.75,20.25-40.5,37.25-44.25,38C1891.25,12405.49,1888.5,12403.74,1876.5,12390.99z"/>
	<path class="st0" d="M760.25,12336.74c-3.25-1.75-9.25-7.75-13.25-13c-24.75-33-73-81.5-132.75-133.25
		c-29.75-25.75-33.25-30.25-29.25-37.75c6.25-12,32-17.25,59.25-12.5c72,12.5,205.75,126,205.75,175c0,4-0.75,7.75-1.75,8.25
		c-1.25,0.75-13.25,2.5-27,4.25c-13.5,1.5-31.5,5-40,7.75c-8.25,2.5-15,4.75-15,4.75
		C766.25,12339.99,763.5,12338.49,760.25,12336.74z"/>
	<path class="st0" d="M1782.25,12335.24c-7.75-2.5-25.25-6-38.75-7.5c-13.5-1.75-25.5-3.5-26.5-4.25c-1.25-0.5-2-4.25-2-8.25
		c0-49,133.75-162.5,205.75-175c27.25-4.75,53,0.5,59.25,12.5c4,7.5,0.5,12-29.25,37.75c-60.25,52-109.25,101.5-133.25,133.75
		c-5.75,8-18,17.25-20.75,15.75C1796.5,12339.74,1790,12337.74,1782.25,12335.24z"/>
</g>
</svg>
