<svg version="1.1" xmlns="http://www.w3.org/2000/svg" style="display: block;" viewBox="0 0 2048 2048" width="1024" height="1024" preserveAspectRatio="none">
<defs>
	<linearGradient id="Gradient1" gradientUnits="userSpaceOnUse" x1="547.589" y1="1144.7" x2="557.157" y2="1109.08">
		<stop class="stop0" offset="0" stop-opacity="1" stop-color="rgb(109,36,191)"/>
		<stop class="stop1" offset="1" stop-opacity="1" stop-color="rgb(159,45,215)"/>
	</linearGradient>
	<linearGradient id="Gradient2" gradientUnits="userSpaceOnUse" x1="1272.43" y1="1626.93" x2="1296.84" y2="1540.11">
		<stop class="stop0" offset="0" stop-opacity="1" stop-color="rgb(104,28,169)"/>
		<stop class="stop1" offset="1" stop-opacity="1" stop-color="rgb(146,33,202)"/>
	</linearGradient>
	<linearGradient id="Gradient3" gradientUnits="userSpaceOnUse" x1="424.603" y1="1216.6" x2="379.932" y2="1266.38">
		<stop class="stop0" offset="0" stop-opacity="1" stop-color="rgb(76,30,165)"/>
		<stop class="stop1" offset="1" stop-opacity="1" stop-color="rgb(152,42,219)"/>
	</linearGradient>
	<linearGradient id="Gradient4" gradientUnits="userSpaceOnUse" x1="1225.05" y1="1383.68" x2="1230.76" y2="1373.64">
		<stop class="stop0" offset="0" stop-opacity="1" stop-color="rgb(161,33,188)"/>
		<stop class="stop1" offset="1" stop-opacity="1" stop-color="rgb(197,47,205)"/>
	</linearGradient>
	<linearGradient id="Gradient5" gradientUnits="userSpaceOnUse" x1="1425.17" y1="1491.43" x2="1370.48" y2="1579.2">
		<stop class="stop0" offset="0" stop-opacity="1" stop-color="rgb(96,25,159)"/>
		<stop class="stop1" offset="1" stop-opacity="1" stop-color="rgb(153,33,204)"/>
	</linearGradient>
	<linearGradient id="Gradient6" gradientUnits="userSpaceOnUse" x1="1557.7" y1="1551.8" x2="1578.63" y2="1521.8">
		<stop class="stop0" offset="0" stop-opacity="1" stop-color="rgb(107,207,245)"/>
		<stop class="stop1" offset="1" stop-opacity="1" stop-color="rgb(139,195,253)"/>
	</linearGradient>
	<linearGradient id="Gradient7" gradientUnits="userSpaceOnUse" x1="1568.01" y1="1543.57" x2="1584.11" y2="1519.32">
		<stop class="stop0" offset="0" stop-opacity="1" stop-color="rgb(99,38,176)"/>
		<stop class="stop1" offset="1" stop-opacity="1" stop-color="rgb(143,42,196)"/>
	</linearGradient>
	<linearGradient id="Gradient8" gradientUnits="userSpaceOnUse" x1="1494.73" y1="1551.8" x2="1534" y2="1485.57">
		<stop class="stop0" offset="0" stop-opacity="1" stop-color="rgb(75,30,146)"/>
		<stop class="stop1" offset="1" stop-opacity="1" stop-color="rgb(146,43,204)"/>
	</linearGradient>
	<linearGradient id="Gradient9" gradientUnits="userSpaceOnUse" x1="1336.55" y1="1681.47" x2="1321.83" y2="1731.85">
		<stop class="stop0" offset="0" stop-opacity="1" stop-color="rgb(106,205,251)"/>
		<stop class="stop1" offset="1" stop-opacity="1" stop-color="rgb(162,202,255)"/>
	</linearGradient>
	<linearGradient id="Gradient10" gradientUnits="userSpaceOnUse" x1="1321.42" y1="1687.7" x2="1310.93" y2="1728.13">
		<stop class="stop0" offset="0" stop-opacity="1" stop-color="rgb(83,29,157)"/>
		<stop class="stop1" offset="1" stop-opacity="1" stop-color="rgb(154,39,221)"/>
	</linearGradient>
	<linearGradient id="Gradient11" gradientUnits="userSpaceOnUse" x1="1285.41" y1="1627.95" x2="1256.34" y2="1716.39">
		<stop class="stop0" offset="0" stop-opacity="1" stop-color="rgb(81,31,150)"/>
		<stop class="stop1" offset="1" stop-opacity="1" stop-color="rgb(147,37,215)"/>
	</linearGradient>
	<linearGradient id="Gradient12" gradientUnits="userSpaceOnUse" x1="1210.32" y1="1548.11" x2="1160.62" y2="1681.14">
		<stop class="stop0" offset="0" stop-opacity="1" stop-color="rgb(100,25,162)"/>
		<stop class="stop1" offset="1" stop-opacity="1" stop-color="rgb(141,39,212)"/>
	</linearGradient>
</defs>
<path transform="translate(0,0)" fill="rgb(240,120,241)" d="M 604.923 1001.85 C 604.565 989.449 606.961 968.479 609.329 956.196 C 611.42 960.448 626.8 969.677 631.405 972.59 C 677.03 1002.07 725.497 1026.9 776.079 1046.7 C 871.756 1079.73 958.38 1100.88 1060.86 1096.62 C 1083.88 1095.66 1116.75 1093.48 1139 1088.66 C 1157.04 1087.25 1202.3 1074.81 1221.47 1069.29 C 1221.91 1079.92 1223.05 1097.37 1222.43 1107.47 C 1215.32 1112.62 1213.72 1113.32 1205.07 1114.66 L 1205.11 1116.65 C 1205.33 1130.36 1200.65 1145.05 1202.81 1158.45 C 1204.84 1171.05 1212.04 1183.44 1216.11 1195.55 C 1221.66 1212.05 1244.96 1294.52 1235.21 1305.18 C 1232.86 1307.75 1229.26 1309.36 1226.18 1310.81 C 1246.73 1324.78 1284.7 1338.8 1307.84 1349.96 C 1314.69 1353.26 1325.61 1357.25 1331.79 1360.81 C 1342.81 1356.88 1346.82 1353.61 1359.5 1359.61 C 1369.45 1364.7 1379.69 1369.58 1389.58 1374.77 C 1404.37 1382.53 1422.21 1389.22 1436.32 1397.93 C 1480.46 1425.17 1532.02 1452.03 1569.83 1487.81 C 1578.84 1496.68 1586.81 1504.78 1596.8 1512.6 C 1629.26 1535.58 1720.79 1615.36 1740.3 1647.11 C 1763.74 1677.34 1786.79 1710.98 1781.99 1751.33 C 1780.52 1763.61 1774.99 1774.13 1765.02 1781.59 C 1709.56 1823.12 1503.52 1805.46 1433.1 1795.13 C 1300.28 1775.66 1159.78 1732.27 1034.42 1684.37 C 958.413 1655.33 884.556 1620.2 811.737 1584.03 C 668.294 1512.8 522.73 1433.54 401.844 1327.33 C 380.567 1308.64 357.878 1289.19 340.887 1266.36 C 327.079 1251.56 304.645 1220.96 298.858 1202.42 C 294.684 1188.93 298.059 1176.99 301.67 1163.68 C 320.001 1146.39 363.56 1145.23 388.598 1136.11 C 389.006 1133.19 389.198 1130.32 389.369 1127.37 C 389.954 1117.31 390.169 1102.27 398.647 1095.31 C 416.487 1080.67 535.848 1100.09 564.021 1103.87 C 579.71 1105.97 595.493 1107.48 611.206 1109.43 C 611.387 1096.95 606.764 1081.7 606.042 1068.86 C 604.794 1046.67 605.022 1024.08 604.923 1001.85 z"/>
<path transform="translate(0,0)" fill="rgb(236,70,151)" d="M 604.923 1001.85 C 604.565 989.449 606.961 968.479 609.329 956.196 C 611.42 960.448 626.8 969.677 631.405 972.59 C 677.03 1002.07 725.497 1026.9 776.079 1046.7 C 871.756 1079.73 958.38 1100.88 1060.86 1096.62 C 1083.88 1095.66 1116.75 1093.48 1139 1088.66 C 1157.04 1087.25 1202.3 1074.81 1221.47 1069.29 C 1221.91 1079.92 1223.05 1097.37 1222.43 1107.47 C 1215.32 1112.62 1213.72 1113.32 1205.07 1114.66 L 1205.11 1116.65 C 1205.33 1130.36 1200.65 1145.05 1202.81 1158.45 C 1204.84 1171.05 1212.04 1183.44 1216.11 1195.55 C 1221.66 1212.05 1244.96 1294.52 1235.21 1305.18 C 1232.86 1307.75 1229.26 1309.36 1226.18 1310.81 L 1222.49 1314.87 L 1219.48 1321.39 C 1211.67 1336.07 1207.02 1344.89 1195.05 1356.7 L 1187.15 1364.11 L 1181.25 1368.24 C 1153.75 1385.09 1128.11 1384.13 1099.2 1371.83 C 1083.52 1360.29 1077.03 1355.5 1063.68 1341.25 C 1062.09 1340.4 1059.57 1340.14 1057.68 1339.79 C 1049.34 1340.29 1012.5 1337.17 1002.42 1336.55 C 996.452 1327.96 992.495 1316.99 986.62 1307.51 C 954.481 1300.44 911.217 1295.18 878.147 1290.5 C 873.818 1298.63 863.381 1320.7 858.174 1325.73 C 851.836 1323.55 835.179 1323.15 827.81 1322.79 C 823.025 1323.25 820.122 1323.25 816.082 1325.95 L 815.234 1326.03 C 806.896 1327.63 793.033 1329.87 785.4 1332.48 C 763.252 1335.13 727.768 1332.43 706.57 1325.03 C 699.486 1322.56 691.02 1317.27 684.013 1314.78 L 682.19 1314.15 C 670.798 1308.14 661.77 1298.31 652.537 1289.3 C 648.87 1284.27 646.51 1280.29 643.341 1274.94 C 642.499 1274.1 638.23 1268.06 637.255 1266.72 C 631.904 1263.85 627.021 1260.97 621.81 1257.87 C 616.009 1254.47 607.898 1250.2 603.273 1245.55 C 600.03 1242.29 600.793 1240.78 601.066 1236.82 C 603.235 1232.24 603.829 1223.19 604.397 1217.89 C 605.874 1211.51 607.23 1205.09 608.464 1198.66 C 609.265 1195 609.882 1191.42 610.536 1187.74 C 612.079 1183.8 612.268 1179.73 612.768 1175.49 C 612.885 1171.35 613.219 1169.97 614.085 1165.86 C 617.394 1152.25 616.192 1136.07 612.736 1122.63 L 611.206 1109.43 C 611.387 1096.95 606.764 1081.7 606.042 1068.86 C 604.794 1046.67 605.022 1024.08 604.923 1001.85 z"/>
<path transform="translate(0,0)" fill="rgb(179,32,113)" d="M 604.923 1001.85 C 604.565 989.449 606.961 968.479 609.329 956.196 C 611.42 960.448 626.8 969.677 631.405 972.59 C 677.03 1002.07 725.497 1026.9 776.079 1046.7 C 871.756 1079.73 958.38 1100.88 1060.86 1096.62 C 1083.88 1095.66 1116.75 1093.48 1139 1088.66 C 1157.04 1087.25 1202.3 1074.81 1221.47 1069.29 C 1221.91 1079.92 1223.05 1097.37 1222.43 1107.47 C 1215.32 1112.62 1213.72 1113.32 1205.07 1114.66 C 1196.99 1116.7 1188.96 1118.79 1180.85 1120.86 C 1117.89 1136.97 1050.64 1139.04 986.009 1136.02 C 981.101 1135.79 976.16 1135.07 971.308 1134.84 C 957.114 1106.74 949.243 1102.58 929.703 1130.04 C 845.676 1118.72 775.553 1096.87 699.645 1059.58 C 681.913 1050.87 663.917 1038.89 646.13 1030.61 L 645.15 1030.16 C 640.926 1026.6 634.725 1023.17 629.887 1020.25 C 621.832 1014.74 611.891 1008.43 604.923 1001.85 z"/>
<path transform="translate(0,0)" fill="rgb(179,32,113)" d="M 809.498 1209.46 C 889.13 1266.25 983.385 1276.51 1069.36 1226.41 C 1053.42 1250.05 1042.41 1255.08 1023.37 1272.51 C 1031.67 1289.47 1041.08 1306.17 1049.33 1323.18 C 1050.53 1325.64 1057.05 1337.91 1057.68 1339.79 C 1049.34 1340.29 1012.5 1337.17 1002.42 1336.55 C 996.452 1327.96 992.495 1316.99 986.62 1307.51 C 954.481 1300.44 911.217 1295.18 878.147 1290.5 C 873.818 1298.63 863.381 1320.7 858.174 1325.73 C 851.836 1323.55 835.179 1323.15 827.81 1322.79 C 828.987 1322.22 832.1 1320.61 832.672 1319.67 C 840.803 1306.24 852.613 1280.58 857.464 1266.45 C 858.037 1264.8 858.559 1263.13 859.03 1261.45 C 841.914 1247.97 823.293 1226.72 809.498 1209.46 z"/>
<path transform="translate(0,0)" fill="rgb(127,34,198)" d="M 886.704 1276.16 C 893.373 1275.8 970.967 1281.59 972.645 1282.83 C 978.963 1287.5 983.288 1300.29 986.62 1307.51 C 954.481 1300.44 911.217 1295.18 878.147 1290.5 C 880.777 1285.77 883.493 1280.45 886.704 1276.16 z"/>
<path transform="translate(0,0)" fill="rgb(236,70,151)" d="M 604.923 1001.85 C 611.891 1008.43 621.832 1014.74 629.887 1020.25 C 634.725 1023.17 640.926 1026.6 645.15 1030.16 C 644.848 1052.74 644.514 1073.83 647.451 1096.3 C 649.725 1113.71 655.705 1130.19 655.213 1147.81 C 654.821 1161.86 651.327 1174.27 649.082 1187.71 C 645.051 1211.84 637.756 1242.74 637.255 1266.72 C 631.904 1263.85 627.021 1260.97 621.81 1257.87 C 616.009 1254.47 607.898 1250.2 603.273 1245.55 C 600.03 1242.29 600.793 1240.78 601.066 1236.82 C 603.235 1232.24 603.829 1223.19 604.397 1217.89 C 605.874 1211.51 607.23 1205.09 608.464 1198.66 C 609.265 1195 609.882 1191.42 610.536 1187.74 C 612.079 1183.8 612.268 1179.73 612.768 1175.49 C 612.885 1171.35 613.219 1169.97 614.085 1165.86 C 617.394 1152.25 616.192 1136.07 612.736 1122.63 L 611.206 1109.43 C 611.387 1096.95 606.764 1081.7 606.042 1068.86 C 604.794 1046.67 605.022 1024.08 604.923 1001.85 z"/>
<path transform="translate(0,0)" fill="rgb(254,254,254)" d="M 621.81 1257.87 C 623.28 1223.83 637.209 1180.53 638.532 1145.91 C 639.187 1128.78 632.659 1108.48 630.359 1091.18 C 628.196 1074.91 627.967 1058.41 628.398 1042.02 C 628.544 1036.46 628.472 1025.12 629.887 1020.25 C 634.725 1023.17 640.926 1026.6 645.15 1030.16 C 644.848 1052.74 644.514 1073.83 647.451 1096.3 C 649.725 1113.71 655.705 1130.19 655.213 1147.81 C 654.821 1161.86 651.327 1174.27 649.082 1187.71 C 645.051 1211.84 637.756 1242.74 637.255 1266.72 C 631.904 1263.85 627.021 1260.97 621.81 1257.87 z"/>
<path transform="translate(0,0)" fill="rgb(185,105,40)" d="M 1063.68 1341.25 C 1107.31 1338.71 1146.36 1340.12 1188.04 1323.52 C 1195.34 1320.61 1216.11 1310.72 1222.49 1314.87 L 1219.48 1321.39 C 1211.67 1336.07 1207.02 1344.89 1195.05 1356.7 L 1187.15 1364.11 L 1181.25 1368.24 C 1153.75 1385.09 1128.11 1384.13 1099.2 1371.83 C 1083.52 1360.29 1077.03 1355.5 1063.68 1341.25 z"/>
<path transform="translate(0,0)" fill="rgb(185,105,40)" d="M 643.341 1274.94 C 652.364 1270.93 666.38 1283.18 674.863 1286.43 C 694.771 1294.06 715.485 1302.39 736.194 1307.63 C 753.142 1311.74 770.239 1315.21 787.448 1318.04 C 792.327 1318.85 811.068 1321.37 814.67 1322.64 C 814.946 1323.94 815.208 1324.72 815.234 1326.03 C 806.896 1327.63 793.033 1329.87 785.4 1332.48 C 763.252 1335.13 727.768 1332.43 706.57 1325.03 C 699.486 1322.56 691.02 1317.27 684.013 1314.78 L 682.19 1314.15 C 670.798 1308.14 661.77 1298.31 652.537 1289.3 C 648.87 1284.27 646.51 1280.29 643.341 1274.94 z"/>
<path transform="translate(0,0)" fill="rgb(254,254,254)" d="M 929.703 1130.04 C 949.243 1102.58 957.114 1106.74 971.308 1134.84 C 976.064 1148.39 993.851 1200.26 985.453 1213.01 C 980.59 1216.25 974.061 1214.76 973.631 1209.88 C 970.667 1176.21 966.431 1154.22 950.127 1123.48 C 938.186 1140.25 931.306 1156.38 925.63 1176.25 C 923.336 1184.28 920.268 1205.71 909.14 1203.77 C 899.349 1191.82 922.805 1141.84 929.703 1130.04 z"/>
<path transform="translate(0,0)" fill="rgb(92,28,155)" d="M 878.147 1290.5 C 911.217 1295.18 954.481 1300.44 986.62 1307.51 C 992.495 1316.99 996.452 1327.96 1002.42 1336.55 C 1012.5 1337.17 1049.34 1340.29 1057.68 1339.79 C 1059.57 1340.14 1062.09 1340.4 1063.68 1341.25 C 1077.03 1355.5 1083.52 1360.29 1099.2 1371.83 C 1128.11 1384.13 1153.75 1385.09 1181.25 1368.24 C 1203.36 1381.82 1224.29 1388.97 1247.13 1400.81 C 1256.35 1405.59 1268.38 1417.93 1272.2 1420.1 C 1283.29 1417.18 1297.43 1440.51 1299.39 1449.96 C 1301.45 1459.87 1300.17 1468.64 1294.71 1477.27 C 1287.9 1489.6 1263.17 1501.74 1249.25 1503.44 L 1247.12 1504.4 L 1247.09 1505.12 C 1234.7 1509.03 1226.89 1509.75 1215.04 1512.61 L 1213.72 1512.77 C 1194.99 1516.97 1166.5 1519.33 1146.88 1522.08 C 1123.61 1525.35 1097.18 1529.81 1074.15 1531.42 C 1061.94 1525.39 1045.26 1517.5 1032.55 1513.07 C 1024.49 1513 1016.34 1511.64 1007.86 1511.63 L 1005.63 1511.28 C 992.097 1510.84 957.788 1503.9 946.987 1505.38 L 935.218 1500.41 C 926.823 1502.98 918.068 1497.27 907.932 1497.39 L 902.095 1495.25 C 866.825 1493.25 731.348 1456.07 700.892 1441.26 L 698.707 1441.12 C 693.316 1438.09 688.029 1436.53 682.191 1434.51 L 682.299 1433.73 C 675.962 1429.21 658.286 1425.32 647.87 1418.02 L 647.125 1417.49 C 643.179 1414.98 639.269 1412.42 635.396 1409.81 C 648.527 1407.01 660.92 1405.4 674.229 1401.74 C 683.742 1404.92 686.386 1401.7 694.985 1397.35 C 721.165 1379.57 768.965 1358.05 785.4 1332.48 C 793.033 1329.87 806.896 1327.63 815.234 1326.03 L 816.082 1325.95 C 820.122 1323.25 823.025 1323.25 827.81 1322.79 C 835.179 1323.15 851.836 1323.55 858.174 1325.73 C 863.381 1320.7 873.818 1298.63 878.147 1290.5 z"/>
<path transform="translate(0,0)" fill="rgb(92,28,155)" d="M 878.147 1290.5 C 911.217 1295.18 954.481 1300.44 986.62 1307.51 C 992.495 1316.99 996.452 1327.96 1002.42 1336.55 C 1012.5 1337.17 1049.34 1340.29 1057.68 1339.79 C 1059.57 1340.14 1062.09 1340.4 1063.68 1341.25 C 1077.03 1355.5 1083.52 1360.29 1099.2 1371.83 C 1128.11 1384.13 1153.75 1385.09 1181.25 1368.24 C 1203.36 1381.82 1224.29 1388.97 1247.13 1400.81 C 1256.35 1405.59 1268.38 1417.93 1272.2 1420.1 C 1283.29 1417.18 1297.43 1440.51 1299.39 1449.96 C 1301.45 1459.87 1300.17 1468.64 1294.71 1477.27 C 1287.9 1489.6 1263.17 1501.74 1249.25 1503.44 L 1247.12 1504.4 C 1243.67 1503.66 1241.8 1503.5 1238.77 1501.62 C 1197.32 1483.87 1154.37 1462.73 1113.36 1443.45 L 960.218 1372.59 L 898.571 1344.16 C 887.81 1339.09 868.883 1329.45 858.174 1325.73 C 863.381 1320.7 873.818 1298.63 878.147 1290.5 z"/>
<path transform="translate(0,0)" fill="rgb(232,154,141)" d="M 1181.25 1368.24 C 1203.36 1381.82 1224.29 1388.97 1247.13 1400.81 C 1256.35 1405.59 1268.38 1417.93 1272.2 1420.1 C 1278.89 1430.87 1277.35 1432.19 1271.48 1442.68 C 1267.03 1446.26 1265.76 1446.67 1260.42 1448.86 C 1261.97 1453.25 1263.18 1455.17 1262.32 1459.52 C 1256.7 1467.48 1244.96 1460.81 1237.99 1457.15 C 1237.48 1459.95 1237.14 1461.2 1237.29 1464.11 C 1234.69 1468.53 1228.37 1469.81 1223.32 1471.72 C 1222.02 1473.2 1219.39 1476.26 1217.57 1476.75 C 1212.12 1477.57 1201.25 1471.08 1197.02 1468.07 C 1170.53 1449.23 1141.79 1431.65 1117.05 1410.71 C 1104.74 1400.28 1102.49 1386.41 1099.2 1371.83 C 1128.11 1384.13 1153.75 1385.09 1181.25 1368.24 z"/>
<path transform="translate(0,0)" fill="rgb(185,105,40)" d="M 1198.49 1424.42 C 1212.21 1429.16 1233.7 1442.66 1237.99 1457.15 C 1237.48 1459.95 1237.14 1461.2 1237.29 1464.11 C 1234.69 1468.53 1228.37 1469.81 1223.32 1471.72 L 1223.17 1470.34 C 1221.56 1453.82 1208.47 1436.88 1198.49 1424.42 z"/>
<path transform="translate(0,0)" fill="rgb(185,105,40)" d="M 1218.46 1410.97 C 1237.62 1415.62 1260.03 1426.03 1271.48 1442.68 C 1267.03 1446.26 1265.76 1446.67 1260.42 1448.86 C 1257.3 1445.32 1254.81 1441.42 1251.56 1437.82 C 1241.88 1427.11 1230.22 1419.18 1218.46 1410.97 z"/>
<path transform="translate(0,0)" fill="rgb(78,119,188)" d="M 1237.9 1463.86 C 1240.67 1461.52 1239.12 1462.04 1242.68 1462.18 C 1250.19 1468.14 1248.8 1493.62 1249.25 1503.44 L 1247.12 1504.4 C 1243.67 1503.66 1241.8 1503.5 1238.77 1501.62 C 1237.59 1489.66 1237.92 1475.99 1237.9 1463.86 z"/>
<path transform="translate(0,0)" fill="rgb(92,28,155)" d="M 694.985 1397.35 C 717.035 1396.34 741.87 1388.04 764.059 1385.52 C 824.194 1411.66 887.595 1443.23 947.147 1471.49 L 997.214 1495.17 C 1005.63 1499.09 1025.31 1507.98 1032.55 1513.07 C 1024.49 1513 1016.34 1511.64 1007.86 1511.63 L 1005.63 1511.28 C 992.097 1510.84 957.788 1503.9 946.987 1505.38 L 935.218 1500.41 C 926.823 1502.98 918.068 1497.27 907.932 1497.39 L 902.095 1495.25 C 866.825 1493.25 731.348 1456.07 700.892 1441.26 L 698.707 1441.12 C 693.316 1438.09 688.029 1436.53 682.191 1434.51 L 682.299 1433.73 C 675.962 1429.21 658.286 1425.32 647.87 1418.02 L 647.125 1417.49 C 643.179 1414.98 639.269 1412.42 635.396 1409.81 C 648.527 1407.01 660.92 1405.4 674.229 1401.74 C 683.742 1404.92 686.386 1401.7 694.985 1397.35 z"/>
<path transform="translate(0,0)" fill="rgb(78,119,188)" d="M 694.985 1397.35 C 717.035 1396.34 741.87 1388.04 764.059 1385.52 C 824.194 1411.66 887.595 1443.23 947.147 1471.49 L 997.214 1495.17 C 1005.63 1499.09 1025.31 1507.98 1032.55 1513.07 C 1024.49 1513 1016.34 1511.64 1007.86 1511.63 L 1005.63 1511.28 C 997.053 1505.81 978.027 1497.2 968.277 1492.5 C 942.382 1480 916.38 1467.71 890.275 1455.65 L 808.413 1417.01 C 794.539 1410.45 775.813 1400.92 761.8 1395.6 L 688.168 1410.11 C 675.333 1412.6 660.216 1414.89 647.87 1418.02 L 647.125 1417.49 C 643.179 1414.98 639.269 1412.42 635.396 1409.81 C 648.527 1407.01 660.92 1405.4 674.229 1401.74 C 683.742 1404.92 686.386 1401.7 694.985 1397.35 z"/>
<path transform="translate(0,0)" fill="rgb(92,28,155)" d="M 700.892 1441.26 C 714.423 1437.74 748.237 1431.54 762.494 1429.34 C 774.769 1433.87 792.065 1442.78 804.245 1448.6 L 865.932 1477.98 C 872.997 1481.41 896.912 1491.92 902.095 1495.25 C 866.825 1493.25 731.348 1456.07 700.892 1441.26 z"/>
<path transform="translate(0,0)" fill="rgb(151,39,198)" d="M 682.299 1433.73 C 702.857 1430.74 723.001 1426.43 743.348 1422.3 C 756.025 1419.72 762.908 1418.4 775.122 1423.93 C 823.296 1445.72 870.607 1469.31 918.542 1491.61 C 923.387 1493.87 930.805 1497.56 935.218 1500.41 C 926.823 1502.98 918.068 1497.27 907.932 1497.39 L 902.095 1495.25 C 896.912 1491.92 872.997 1481.41 865.932 1477.98 L 804.245 1448.6 C 792.065 1442.78 774.769 1433.87 762.494 1429.34 C 748.237 1431.54 714.423 1437.74 700.892 1441.26 L 698.707 1441.12 C 693.316 1438.09 688.029 1436.53 682.191 1434.51 L 682.299 1433.73 z"/>
<path transform="translate(0,0)" fill="rgb(167,71,182)" d="M 827.81 1322.79 C 835.179 1323.15 851.836 1323.55 858.174 1325.73 C 868.883 1329.45 887.81 1339.09 898.571 1344.16 L 960.218 1372.59 L 1113.36 1443.45 C 1154.37 1462.73 1197.32 1483.87 1238.77 1501.62 C 1241.8 1503.5 1243.67 1503.66 1247.12 1504.4 L 1247.09 1505.12 C 1234.7 1509.03 1226.89 1509.75 1215.04 1512.61 L 1213.72 1512.77 C 1208.91 1506.81 1099.82 1458.07 1085.01 1451.27 L 893.539 1362.47 C 879.531 1356.03 824.837 1332.58 816.082 1325.95 C 820.122 1323.25 823.025 1323.25 827.81 1322.79 z"/>
<path transform="translate(0,0)" fill="url(#Gradient12)" d="M 682.191 1434.51 C 688.029 1436.53 693.316 1438.09 698.707 1441.12 L 700.892 1441.26 C 731.348 1456.07 866.825 1493.25 902.095 1495.25 L 907.932 1497.39 C 962.421 1524.74 1018.26 1549.44 1072.97 1576.32 C 1086.53 1582.98 1100.67 1589.06 1113.99 1595.99 C 1153.22 1589.83 1192.63 1585.5 1231.94 1580.1 C 1256.87 1576.67 1276.44 1590.68 1299.08 1601.34 L 1377.89 1638.34 L 1487.7 1690 C 1504.65 1698.02 1525.73 1707.36 1542.03 1716.02 C 1566.02 1713.12 1601.08 1706.19 1624.6 1701.07 C 1636.42 1706.82 1728.93 1748.08 1731.18 1752.67 C 1718.09 1763.53 1616.76 1774.61 1601.84 1768.52 C 1595.27 1772.37 1587.27 1770.53 1579.58 1769.71 C 1567.03 1770.85 1457.96 1762.17 1452.47 1756.36 C 1449.2 1758.43 1446.25 1757.31 1441.93 1756.5 C 1426.06 1753.91 1411.5 1751.46 1395.82 1748.04 C 1372.39 1744.2 1319.77 1733.37 1297.35 1726.43 C 1283.91 1723.45 1271.99 1720.11 1258.73 1716.34 C 1248.16 1713.08 1216.89 1705.74 1208.35 1701.35 C 1202.12 1698.39 1198.41 1700.85 1192.61 1694.96 C 1181.19 1695.92 1133.8 1677.28 1118.97 1672.48 C 1115.92 1672.04 1100.9 1665.21 1097.97 1663.71 C 1088.05 1664.84 968.842 1614.16 953.012 1606.32 C 947.007 1603.76 942.755 1603.13 937.813 1598.81 C 932.121 1599.04 909.971 1587.62 903.112 1584.48 C 828.752 1550.28 755.587 1513.53 683.749 1474.3 C 671.309 1467.59 659.557 1460.12 647.236 1453.45 C 641.92 1451.32 636.051 1448.43 631.623 1444.79 C 644.989 1440.38 668.136 1436.38 682.191 1434.51 z"/>
<path transform="translate(0,0)" fill="url(#Gradient11)" d="M 953.012 1606.32 C 981.881 1601.44 1010.78 1596.73 1039.71 1592.21 C 1064.98 1604.66 1093.64 1620.2 1118.8 1631.45 C 1160.79 1626.45 1204.58 1619.25 1246.56 1613.25 C 1271.92 1624.04 1299.33 1637.65 1324.49 1649.35 L 1472.8 1718.72 L 1546.39 1753.47 C 1553.48 1756.84 1573.71 1765.91 1579.58 1769.71 C 1567.03 1770.85 1457.96 1762.17 1452.47 1756.36 C 1449.2 1758.43 1446.25 1757.31 1441.93 1756.5 C 1426.06 1753.91 1411.5 1751.46 1395.82 1748.04 C 1372.39 1744.2 1319.77 1733.37 1297.35 1726.43 C 1283.91 1723.45 1271.99 1720.11 1258.73 1716.34 C 1248.16 1713.08 1216.89 1705.74 1208.35 1701.35 C 1202.12 1698.39 1198.41 1700.85 1192.61 1694.96 C 1181.19 1695.92 1133.8 1677.28 1118.97 1672.48 C 1115.92 1672.04 1100.9 1665.21 1097.97 1663.71 C 1088.05 1664.84 968.842 1614.16 953.012 1606.32 z"/>
<path transform="translate(0,0)" fill="url(#Gradient10)" d="M 1309.51 1682.61 C 1331.09 1690.97 1370.09 1710.99 1392.07 1721.53 C 1399.78 1725.18 1437.08 1742.17 1442.12 1746.42 C 1442.22 1748.36 1442.26 1751.18 1442.49 1753.04 L 1441.93 1756.5 C 1426.06 1753.91 1411.5 1751.46 1395.82 1748.04 C 1372.39 1744.2 1319.77 1733.37 1297.35 1726.43 C 1283.91 1723.45 1271.99 1720.11 1258.73 1716.34 C 1248.16 1713.08 1216.89 1705.74 1208.35 1701.35 C 1240.37 1696.51 1277.43 1688.61 1309.51 1682.61 z"/>
<path transform="translate(0,0)" fill="rgb(127,34,198)" d="M 1442.12 1746.42 C 1426.54 1744.92 1411.52 1734.26 1396.83 1728.88 C 1389.69 1726.27 1374.74 1727.09 1371.39 1720.39 C 1373.96 1717.53 1385.54 1722.67 1392.07 1721.53 C 1399.78 1725.18 1437.08 1742.17 1442.12 1746.42 z"/>
<path transform="translate(0,0)" fill="rgb(151,39,198)" d="M 1395.82 1748.04 L 1408.52 1746.35 L 1406.96 1744.78 C 1411.58 1742.26 1435.24 1750.04 1441.4 1751.23 L 1442.49 1753.04 L 1441.93 1756.5 C 1426.06 1753.91 1411.5 1751.46 1395.82 1748.04 z"/>
<path transform="translate(0,0)" fill="rgb(151,39,198)" d="M 1258.73 1716.34 C 1273.8 1713.59 1285.56 1715.91 1297.35 1726.43 C 1283.91 1723.45 1271.99 1720.11 1258.73 1716.34 z"/>
<path transform="translate(0,0)" fill="url(#Gradient9)" d="M 1192.61 1694.96 C 1203.13 1692.26 1213.75 1690.37 1224.43 1688.46 C 1253.28 1683.32 1282.01 1677.08 1310.89 1672.18 C 1356.47 1693.55 1405.75 1716.22 1450.77 1738.64 L 1452.47 1756.36 C 1449.2 1758.43 1446.25 1757.31 1441.93 1756.5 L 1442.49 1753.04 C 1442.26 1751.18 1442.22 1748.36 1442.12 1746.42 C 1437.08 1742.17 1399.78 1725.18 1392.07 1721.53 C 1370.09 1710.99 1331.09 1690.97 1309.51 1682.61 C 1277.43 1688.61 1240.37 1696.51 1208.35 1701.35 C 1202.12 1698.39 1198.41 1700.85 1192.61 1694.96 z"/>
<path transform="translate(0,0)" fill="rgb(231,83,223)" d="M 1201.69 1648.98 C 1212.13 1629.43 1242.49 1630.53 1246.73 1646.89 C 1247.71 1650.77 1247.09 1654.88 1245 1658.29 C 1236.42 1672.51 1214.19 1670.04 1204.1 1658.42 C 1193.16 1659.67 1125.03 1669.37 1118.97 1672.48 C 1115.92 1672.04 1100.9 1665.21 1097.97 1663.71 C 1132.6 1658.33 1167.25 1654.13 1201.69 1648.98 z"/>
<path transform="translate(0,0)" fill="rgb(92,28,155)" d="M 1219.93 1644.14 C 1226.41 1643.86 1236.69 1644.31 1236.55 1652.89 C 1234.43 1656.5 1233.06 1656.77 1229.18 1658.84 C 1228.02 1658.92 1226.87 1658.96 1225.72 1658.95 C 1219.66 1658.97 1210.92 1656.67 1212.41 1649.02 C 1214.79 1645.88 1216.3 1645.64 1219.93 1644.14 z"/>
<path transform="translate(0,0)" fill="rgb(126,206,251)" d="M 937.813 1598.81 C 970.289 1592.82 1009.49 1588.33 1040.4 1581.9 C 1066.66 1592.95 1096.28 1611.5 1121.25 1621.52 C 1142.42 1618.1 1234.29 1602.49 1249.55 1604.59 C 1262.08 1606.31 1322.05 1637.23 1337.39 1644.37 L 1512.7 1726.38 C 1541.1 1739.73 1574.14 1754.41 1601.84 1768.52 C 1595.27 1772.37 1587.27 1770.53 1579.58 1769.71 C 1573.71 1765.91 1553.48 1756.84 1546.39 1753.47 L 1472.8 1718.72 L 1324.49 1649.35 C 1299.33 1637.65 1271.92 1624.04 1246.56 1613.25 C 1204.58 1619.25 1160.79 1626.45 1118.8 1631.45 C 1093.64 1620.2 1064.98 1604.66 1039.71 1592.21 C 1010.78 1596.73 981.881 1601.44 953.012 1606.32 C 947.007 1603.76 942.755 1603.13 937.813 1598.81 z"/>
<path transform="translate(0,0)" fill="rgb(231,83,223)" d="M 682.191 1434.51 C 688.029 1436.53 693.316 1438.09 698.707 1441.12 C 690.624 1442.78 652.636 1450.28 647.236 1453.45 C 641.92 1451.32 636.051 1448.43 631.623 1444.79 C 644.989 1440.38 668.136 1436.38 682.191 1434.51 z"/>
<path transform="translate(0,0)" fill="rgb(92,28,155)" d="M 1219.48 1321.39 C 1228.66 1324.83 1300.59 1356.53 1302.47 1360.8 C 1306.57 1362.55 1310.68 1364.26 1314.81 1365.92 C 1327.95 1368.47 1425.87 1420.09 1440.62 1429.61 C 1444.08 1431.31 1448.18 1433.05 1451.1 1435.46 C 1468.66 1443.8 1488.18 1457.5 1505.64 1466.88 C 1510.31 1467.55 1512.86 1470.22 1516.08 1473.53 C 1557.51 1498.91 1612.66 1535.45 1649.58 1567.85 C 1653.46 1570.66 1656.29 1572.33 1659.22 1576.15 C 1686.82 1603.56 1701.71 1616.32 1727.59 1646.82 L 1732.42 1652.52 C 1738.23 1657.39 1741.85 1659.51 1744.4 1666.64 L 1743.78 1669.96 C 1753 1681.1 1779.8 1729.24 1766.76 1741.11 C 1761.22 1743.35 1757.81 1741.63 1752.2 1739.09 C 1724.96 1726.73 1697.84 1713.48 1670.55 1701.23 C 1662.35 1697.55 1646.96 1689.62 1639.3 1686.86 C 1635.75 1685.35 1632.22 1683.79 1628.71 1682.2 C 1620.1 1679.11 1601.31 1669.4 1591.81 1664.98 L 1505.43 1624.78 L 1394.61 1573.44 C 1376.52 1565.1 1348.82 1553.42 1332.37 1544.41 C 1323.11 1541.07 1309.51 1534.3 1300.51 1530.08 C 1285.05 1522.89 1269.55 1515.78 1254.02 1508.74 L 1247.09 1505.12 L 1247.12 1504.4 L 1249.25 1503.44 C 1263.17 1501.74 1287.9 1489.6 1294.71 1477.27 C 1300.17 1468.64 1301.45 1459.87 1299.39 1449.96 C 1297.43 1440.51 1283.29 1417.18 1272.2 1420.1 C 1268.38 1417.93 1256.35 1405.59 1247.13 1400.81 C 1224.29 1388.97 1203.36 1381.82 1181.25 1368.24 L 1187.15 1364.11 L 1195.05 1356.7 C 1207.02 1344.89 1211.67 1336.07 1219.48 1321.39 z"/>
<path transform="translate(0,0)" fill="url(#Gradient8)" d="M 1314.81 1365.92 C 1327.95 1368.47 1425.87 1420.09 1440.62 1429.61 C 1444.08 1431.31 1448.18 1433.05 1451.1 1435.46 C 1468.66 1443.8 1488.18 1457.5 1505.64 1466.88 C 1510.31 1467.55 1512.86 1470.22 1516.08 1473.53 C 1557.51 1498.91 1612.66 1535.45 1649.58 1567.85 C 1653.46 1570.66 1656.29 1572.33 1659.22 1576.15 C 1686.82 1603.56 1701.71 1616.32 1727.59 1646.82 L 1732.42 1652.52 L 1719.27 1646.81 C 1701.62 1638.27 1683.87 1629.92 1666.04 1621.77 C 1644.33 1612.31 1621.81 1601.18 1600.14 1591.19 L 1400.57 1498.81 L 1393.06 1422.13 C 1367.62 1409.89 1341.35 1398.9 1316.24 1386.24 C 1315.68 1379.47 1315.2 1372.7 1314.81 1365.92 z"/>
<path transform="translate(0,0)" fill="url(#Gradient7)" d="M 1516.08 1473.53 C 1557.51 1498.91 1612.66 1535.45 1649.58 1567.85 L 1643.65 1570.52 C 1635.62 1569.51 1579.16 1542.9 1568.84 1537.49 C 1560.48 1534.43 1544.74 1526.58 1536.67 1522.59 C 1532.58 1521.42 1526.38 1518.17 1522.36 1516.23 C 1519.96 1501.97 1518.85 1488.4 1516.08 1473.53 z"/>
<path transform="translate(0,0)" fill="rgb(92,28,155)" d="M 1536.67 1522.59 C 1545.34 1519.09 1563.42 1529.18 1569.1 1535.84 L 1568.84 1537.49 C 1560.48 1534.43 1544.74 1526.58 1536.67 1522.59 z"/>
<path transform="translate(0,0)" fill="url(#Gradient6)" d="M 1505.64 1466.88 C 1510.31 1467.55 1512.86 1470.22 1516.08 1473.53 C 1518.85 1488.4 1519.96 1501.97 1522.36 1516.23 C 1526.38 1518.17 1532.58 1521.42 1536.67 1522.59 C 1544.74 1526.58 1560.48 1534.43 1568.84 1537.49 C 1579.16 1542.9 1635.62 1569.51 1643.65 1570.52 C 1643.4 1573.85 1643.24 1577.44 1642.69 1580.7 C 1632.57 1580.67 1530.72 1531.24 1512.53 1522.93 C 1510.81 1504.08 1507.24 1485.42 1505.64 1466.88 z"/>
<path transform="translate(0,0)" fill="rgb(231,83,223)" d="M 1440.62 1429.61 C 1444.08 1431.31 1448.18 1433.05 1451.1 1435.46 C 1455.22 1447.09 1456.56 1460.73 1458.11 1473.04 C 1465.02 1474.8 1472.57 1476.75 1476.77 1483.28 C 1478.54 1485.99 1479.06 1489.34 1478.18 1492.46 C 1472.4 1513.69 1427.24 1510.06 1433.62 1484.34 C 1434.88 1479.22 1443.03 1475.79 1447.7 1474.2 C 1445.46 1462.72 1441.6 1440.81 1440.62 1429.61 z"/>
<path transform="translate(0,0)" fill="rgb(92,28,155)" d="M 1447.53 1483.22 C 1453.82 1482.75 1465.76 1482.28 1467.68 1489.89 C 1466.56 1493.31 1465.46 1493.67 1462.51 1495.76 C 1455.85 1497.08 1444.59 1497.54 1442.9 1489.07 C 1443.95 1485.61 1444.68 1485.38 1447.53 1483.22 z"/>
<path transform="translate(0,0)" fill="rgb(127,34,198)" d="M 1666.04 1621.77 L 1669.18 1620.54 L 1669.11 1619.29 C 1665.85 1617.14 1665.08 1616.77 1661.49 1615.16 L 1660.74 1614.05 C 1666.77 1613.53 1678.45 1618.05 1684.37 1619.77 C 1694.64 1622.75 1719.72 1645.38 1725.82 1647.35 L 1727.59 1646.82 L 1732.42 1652.52 L 1719.27 1646.81 C 1701.62 1638.27 1683.87 1629.92 1666.04 1621.77 z"/>
<path transform="translate(0,0)" fill="rgb(126,206,251)" d="M 1649.58 1567.85 C 1653.46 1570.66 1656.29 1572.33 1659.22 1576.15 L 1642.69 1580.7 C 1643.24 1577.44 1643.4 1573.85 1643.65 1570.52 L 1649.58 1567.85 z"/>
<path transform="translate(0,0)" fill="url(#Gradient5)" d="M 1187.15 1364.11 L 1198.69 1370.78 C 1214.95 1379.32 1231.49 1387.14 1248.93 1392.69 C 1268.44 1402.6 1288.16 1412.1 1308.07 1421.19 C 1315.35 1424.56 1332.07 1431.72 1338.07 1435.35 C 1341.25 1461.49 1342.71 1489.45 1346.6 1515.02 C 1360.27 1523.33 1380.21 1531.76 1395.2 1538.57 L 1462.09 1569.28 C 1496.4 1585.04 1530.62 1601.02 1564.73 1617.21 C 1583.57 1626.09 1605.76 1637.16 1624.76 1645.27 C 1625.58 1654.07 1627.09 1674.16 1628.71 1682.2 C 1620.1 1679.11 1601.31 1669.4 1591.81 1664.98 L 1505.43 1624.78 L 1394.61 1573.44 C 1376.52 1565.1 1348.82 1553.42 1332.37 1544.41 C 1323.11 1541.07 1309.51 1534.3 1300.51 1530.08 C 1285.05 1522.89 1269.55 1515.78 1254.02 1508.74 L 1247.09 1505.12 L 1247.12 1504.4 L 1249.25 1503.44 C 1263.17 1501.74 1287.9 1489.6 1294.71 1477.27 C 1300.17 1468.64 1301.45 1459.87 1299.39 1449.96 C 1297.43 1440.51 1283.29 1417.18 1272.2 1420.1 C 1268.38 1417.93 1256.35 1405.59 1247.13 1400.81 C 1224.29 1388.97 1203.36 1381.82 1181.25 1368.24 L 1187.15 1364.11 z"/>
<path transform="translate(0,0)" fill="rgb(151,39,198)" d="M 1254.02 1508.74 C 1261.02 1506.72 1272.6 1503.09 1276.79 1511.95 L 1275.75 1512.59 C 1272.35 1511.14 1266.09 1508.22 1262.6 1507.97 C 1260.87 1508.67 1261.47 1508.1 1260.65 1509.5 C 1264.03 1511.12 1265.44 1511.04 1268.17 1511.93 C 1274.82 1514.1 1285.26 1520.1 1291.4 1523.65 C 1299.41 1528.28 1327.31 1538.42 1332.37 1544.41 C 1323.11 1541.07 1309.51 1534.3 1300.51 1530.08 C 1285.05 1522.89 1269.55 1515.78 1254.02 1508.74 z"/>
<path transform="translate(0,0)" fill="rgb(151,39,198)" d="M 1562 1641.74 C 1567.98 1646.87 1572.5 1644.03 1578.42 1648.58 L 1579.22 1645.6 C 1591.6 1650.46 1608.89 1663.03 1619.59 1665.64 L 1621.53 1666.1 C 1621.82 1666.65 1622.11 1667.2 1622.41 1667.75 C 1610.79 1673.03 1598.35 1654.04 1589.68 1654.9 L 1591.63 1658.04 L 1591.06 1658.52 C 1568.11 1647.19 1544.95 1636.31 1521.59 1625.87 C 1505.83 1618.91 1489.38 1614.4 1474.85 1604.77 C 1463.26 1597.1 1456.71 1601.21 1451.49 1586.9 C 1453.76 1586.91 1455.83 1588.49 1457.94 1589.86 C 1471.67 1598.78 1477.49 1601.13 1492.47 1606.36 C 1490.61 1607.21 1490.49 1606.7 1487.79 1606.38 C 1496.89 1616.2 1513.99 1609.71 1520.98 1619.27 C 1534.31 1619.38 1549.72 1633 1561.89 1637.51 L 1563.21 1638.01 C 1563.47 1638.11 1563.74 1638.2 1564 1638.3 C 1562.59 1639.93 1562.43 1639.65 1562 1641.74 z"/>
<path transform="translate(0,0)" fill="rgb(127,34,198)" d="M 1520.98 1619.27 C 1534.31 1619.38 1549.72 1633 1561.89 1637.51 L 1563.21 1638.01 C 1563.47 1638.11 1563.74 1638.2 1564 1638.3 C 1562.59 1639.93 1562.43 1639.65 1562 1641.74 C 1549.37 1636.08 1531.81 1627.89 1520.98 1619.27 z"/>
<path transform="translate(0,0)" fill="rgb(126,206,251)" d="M 1302.47 1360.8 C 1306.57 1362.55 1310.68 1364.26 1314.81 1365.92 C 1315.2 1372.7 1315.68 1379.47 1316.24 1386.24 C 1341.35 1398.9 1367.62 1409.89 1393.06 1422.13 L 1400.57 1498.81 L 1600.14 1591.19 C 1621.81 1601.18 1644.33 1612.31 1666.04 1621.77 C 1683.87 1629.92 1701.62 1638.27 1719.27 1646.81 L 1732.42 1652.52 C 1738.23 1657.39 1741.85 1659.51 1744.4 1666.64 L 1743.78 1669.96 C 1737.91 1666.32 1724.37 1660.16 1717.36 1656.51 C 1705.61 1651.99 1687.38 1642.83 1675.54 1637.3 L 1596.79 1600.58 C 1528.44 1568.72 1459.17 1537.77 1391.19 1505.42 L 1383.57 1428.97 L 1306.39 1392.15 C 1305.7 1381.63 1304.4 1371.16 1302.47 1360.8 z"/>
<path transform="translate(0,0)" fill="rgb(190,187,254)" d="M 1719.27 1646.81 L 1732.42 1652.52 C 1738.23 1657.39 1741.85 1659.51 1744.4 1666.64 L 1743.78 1669.96 C 1737.91 1666.32 1724.37 1660.16 1717.36 1656.51 L 1718.31 1655.91 C 1721.82 1655.97 1730.03 1660.72 1733.61 1662.5 L 1734.84 1661.71 C 1735.69 1651.93 1722.33 1652.65 1719.27 1646.81 z"/>
<path transform="translate(0,0)" fill="rgb(231,83,223)" d="M 1265.27 1390.24 C 1291.45 1401.25 1322.12 1415.78 1347.71 1428.38 C 1350.67 1455.1 1353.45 1481.84 1356.05 1508.59 C 1370.36 1517.08 1406.32 1532.01 1423.01 1539.78 L 1556.13 1602.05 C 1579.31 1612.89 1611.96 1627.11 1633.62 1639.14 C 1635.27 1650.86 1639.4 1676.29 1639.3 1686.86 C 1635.75 1685.35 1632.22 1683.79 1628.71 1682.2 C 1627.09 1674.16 1625.58 1654.07 1624.76 1645.27 C 1605.76 1637.16 1583.57 1626.09 1564.73 1617.21 C 1530.62 1601.02 1496.4 1585.04 1462.09 1569.28 L 1395.2 1538.57 C 1380.21 1531.76 1360.27 1523.33 1346.6 1515.02 C 1342.71 1489.45 1341.25 1461.49 1338.07 1435.35 C 1332.07 1431.72 1315.35 1424.56 1308.07 1421.19 C 1288.16 1412.1 1268.44 1402.6 1248.93 1392.69 C 1253.5 1390.53 1260.16 1390.48 1265.27 1390.24 z"/>
<path transform="translate(0,0)" fill="url(#Gradient4)" d="M 1211.33 1365.49 C 1227.33 1371.99 1248.73 1382.75 1265.27 1390.24 C 1260.16 1390.48 1253.5 1390.53 1248.93 1392.69 C 1231.49 1387.14 1214.95 1379.32 1198.69 1370.78 C 1204.63 1361.77 1203.53 1368.96 1211.33 1365.49 z"/>
<path transform="translate(0,0)" fill="rgb(167,71,182)" d="M 1195.05 1356.7 C 1200.03 1359.26 1206.82 1362.53 1211.33 1365.49 C 1203.53 1368.96 1204.63 1361.77 1198.69 1370.78 L 1187.15 1364.11 L 1195.05 1356.7 z"/>
<path transform="translate(0,0)" fill="rgb(127,34,198)" d="M 359.593 1154.92 C 371.216 1152.3 388.803 1149.5 397.918 1142.36 C 417.975 1153.94 451.052 1166.82 472.739 1177.05 L 561.445 1218.38 C 573.32 1223.87 589.638 1232.31 601.066 1236.82 C 600.793 1240.78 600.03 1242.29 603.273 1245.55 C 607.898 1250.2 616.009 1254.47 621.81 1257.87 C 627.021 1260.97 631.904 1263.85 637.255 1266.72 C 638.23 1268.06 642.499 1274.1 643.341 1274.94 C 646.51 1280.29 648.87 1284.27 652.537 1289.3 C 661.77 1298.31 670.798 1308.14 682.19 1314.15 L 684.013 1314.78 C 691.02 1317.27 699.486 1322.56 706.57 1325.03 C 727.768 1332.43 763.252 1335.13 785.4 1332.48 C 768.965 1358.05 721.165 1379.57 694.985 1397.35 C 686.386 1401.7 683.742 1404.92 674.229 1401.74 C 660.92 1405.4 648.527 1407.01 635.396 1409.81 L 632.347 1410.29 C 621.966 1412.16 599.5 1415.79 589.934 1418.84 C 584.633 1419.14 479.838 1351.14 470.298 1341.27 L 462.066 1335.97 C 424.837 1307.89 322.961 1227.35 310.986 1182.45 C 311.417 1178.68 312.637 1176.74 314.257 1173.35 C 310.848 1171.61 311.7 1172.89 310.679 1170.05 C 314.1 1163.35 337.758 1159.22 344.089 1160.1 C 346.243 1160.16 354.483 1156.17 359.593 1154.92 z"/>
<path transform="translate(0,0)" fill="url(#Gradient3)" d="M 310.986 1182.45 C 330.986 1191.7 352.158 1202.58 372.191 1212.33 C 410.278 1230.79 448.246 1249.5 486.092 1268.45 C 479.677 1291.27 468.907 1313.46 462.066 1335.97 C 424.837 1307.89 322.961 1227.35 310.986 1182.45 z"/>
<path transform="translate(0,0)" fill="rgb(232,154,141)" d="M 682.19 1314.15 L 684.013 1314.78 C 691.02 1317.27 699.486 1322.56 706.57 1325.03 C 727.768 1332.43 763.252 1335.13 785.4 1332.48 C 768.965 1358.05 721.165 1379.57 694.985 1397.35 C 686.386 1401.7 683.742 1404.92 674.229 1401.74 L 671.945 1398.51 C 661.488 1396.83 661.773 1393.29 658.877 1384.28 C 645.358 1391.22 631.067 1393.32 637.209 1372.83 L 628.214 1365.18 C 621.488 1362.2 617.493 1356.2 622.152 1349.55 C 634.907 1331.34 661.529 1320.1 682.19 1314.15 z"/>
<path transform="translate(0,0)" fill="rgb(185,105,40)" d="M 658.877 1384.28 C 672.923 1369.01 679.712 1360.03 699.394 1352.28 C 682.413 1370.15 678.311 1374.46 671.945 1398.51 C 661.488 1396.83 661.773 1393.29 658.877 1384.28 z"/>
<path transform="translate(0,0)" fill="rgb(185,105,40)" d="M 628.214 1365.18 C 645.318 1348.28 650.252 1346.76 672.827 1338.83 C 660.244 1351.83 647.18 1356.78 637.209 1372.83 L 628.214 1365.18 z"/>
<path transform="translate(0,0)" fill="rgb(92,28,155)" d="M 632.347 1410.29 C 628.44 1405.25 619.879 1400.02 614.512 1396.24 C 540.792 1344.25 580.254 1300.23 652.537 1289.3 C 661.77 1298.31 670.798 1308.14 682.19 1314.15 C 661.529 1320.1 634.907 1331.34 622.152 1349.55 C 617.493 1356.2 621.488 1362.2 628.214 1365.18 L 637.209 1372.83 C 631.067 1393.32 645.358 1391.22 658.877 1384.28 C 661.773 1393.29 661.488 1396.83 671.945 1398.51 L 674.229 1401.74 C 660.92 1405.4 648.527 1407.01 635.396 1409.81 L 632.347 1410.29 z"/>
<path transform="translate(0,0)" fill="rgb(231,83,223)" d="M 344.089 1160.1 C 346.243 1160.16 354.483 1156.17 359.593 1154.92 C 370.312 1160.86 383.178 1166.54 394.357 1171.74 C 445.808 1195.69 496.893 1220.4 548.169 1244.72 C 553.627 1247.31 559.405 1249.96 564.715 1252.79 C 560.231 1267.88 554.389 1287.53 548.569 1302.08 C 569.623 1318.04 554.534 1333.47 535.831 1333.71 C 511.152 1334.03 504.046 1304.69 538.582 1300.63 C 543.202 1286.75 548.326 1272.13 552.423 1258.16 C 506.523 1236.03 460.487 1214.18 414.319 1192.62 C 394.801 1183.55 361.406 1169.52 344.089 1160.1 z"/>
<path transform="translate(0,0)" fill="rgb(92,28,155)" d="M 533.973 1309.17 C 535.646 1309.13 537.321 1309.2 538.987 1309.37 C 543.568 1309.84 545.418 1311 548.149 1314.45 C 549.703 1321.43 544.885 1322.59 539.226 1324.63 C 532.865 1324.87 529.196 1324.46 525.146 1319.37 C 523.686 1312.6 528.577 1311.1 533.973 1309.17 z"/>
<path transform="translate(0,0)" fill="rgb(126,206,251)" d="M 314.257 1173.35 C 350.025 1189.02 388.548 1209.42 424.08 1226.67 C 444.176 1236.42 479.828 1252.68 498.331 1263.5 C 494.154 1279.29 477.354 1324.91 470.298 1341.27 L 462.066 1335.97 C 468.907 1313.46 479.677 1291.27 486.092 1268.45 C 448.246 1249.5 410.278 1230.79 372.191 1212.33 C 352.158 1202.58 330.986 1191.7 310.986 1182.45 C 311.417 1178.68 312.637 1176.74 314.257 1173.35 z"/>
<path transform="translate(0,0)" fill="url(#Gradient2)" d="M 946.987 1505.38 C 957.788 1503.9 992.097 1510.84 1005.63 1511.28 L 1007.86 1511.63 C 1016.34 1511.64 1024.49 1513 1032.55 1513.07 C 1045.26 1517.5 1061.94 1525.39 1074.15 1531.42 C 1097.18 1529.81 1123.61 1525.35 1146.88 1522.08 C 1166.5 1519.33 1194.99 1516.97 1213.72 1512.77 L 1215.04 1512.61 C 1220.72 1516.35 1223.89 1516.46 1226.62 1521.85 C 1231.96 1521.41 1235.37 1520.98 1240.45 1523.19 C 1251.71 1528.08 1262.82 1533.3 1273.96 1538.45 C 1297.59 1549.27 1321.16 1560.23 1344.67 1571.32 C 1432.45 1612.7 1520.5 1653.52 1608.81 1693.77 C 1588.53 1699.28 1566.87 1702.87 1546.18 1706.74 C 1480.03 1677.32 1413.19 1643.35 1347.24 1612.98 C 1316.12 1598.65 1283.47 1584.02 1253 1568.72 C 1237.62 1569.2 1215.66 1572.33 1200.05 1574.35 L 1116.2 1585.45 C 1094.24 1576.34 1066.36 1562.17 1044.64 1551.72 L 946.987 1505.38 z"/>
<path transform="translate(0,0)" fill="rgb(126,206,251)" d="M 1007.86 1511.63 C 1016.34 1511.64 1024.49 1513 1032.55 1513.07 C 1045.26 1517.5 1061.94 1525.39 1074.15 1531.42 C 1097.18 1529.81 1123.61 1525.35 1146.88 1522.08 C 1166.5 1519.33 1194.99 1516.97 1213.72 1512.77 L 1215.04 1512.61 C 1220.72 1516.35 1223.89 1516.46 1226.62 1521.85 C 1175.29 1529.1 1123.91 1535.88 1072.46 1542.21 C 1051.37 1531.76 1028.67 1522.47 1007.86 1511.63 z"/>
<path transform="translate(0,0)" fill="rgb(231,83,223)" d="M 404.417 1103.07 C 415.693 1100.42 426.205 1097.33 437.569 1099.82 C 445.46 1100.12 449.015 1100.1 456.675 1102.65 C 462.24 1099.8 476.464 1102.3 483.309 1103.13 C 527.71 1107.58 568.958 1114.49 612.736 1122.63 C 616.192 1136.07 617.394 1152.25 614.085 1165.86 C 613.219 1169.97 612.885 1171.35 612.768 1175.49 C 612.268 1179.73 612.079 1183.8 610.536 1187.74 C 609.882 1191.42 609.265 1195 608.464 1198.66 C 595.099 1191.73 577.241 1184 563.306 1177.52 L 471.599 1134.86 C 449.815 1124.8 425.55 1114.1 404.417 1103.07 z"/>
<path transform="translate(0,0)" fill="url(#Gradient1)" d="M 483.309 1103.13 C 527.71 1107.58 568.958 1114.49 612.736 1122.63 C 616.192 1136.07 617.394 1152.25 614.085 1165.86 C 606.529 1161.22 589.238 1153.56 580.884 1149.61 C 559.431 1139.45 537.91 1129.44 516.324 1119.57 C 508.699 1116.05 489.651 1107.67 483.309 1103.13 z"/>
<path transform="translate(0,0)" fill="rgb(126,206,251)" d="M 456.675 1102.65 C 462.24 1099.8 476.464 1102.3 483.309 1103.13 C 489.651 1107.67 508.699 1116.05 516.324 1119.57 C 537.91 1129.44 559.431 1139.45 580.884 1149.61 C 589.238 1153.56 606.529 1161.22 614.085 1165.86 C 613.219 1169.97 612.885 1171.35 612.768 1175.49 C 612.268 1179.73 612.079 1183.8 610.536 1187.74 C 598.262 1182.61 586.151 1177.09 574.222 1171.2 C 571.578 1167.74 568.257 1166.1 564.521 1163.73 C 566.693 1164.04 565.519 1163.99 568.046 1163.75 L 568.21 1162.18 C 555.175 1155.45 543.79 1149.98 530.133 1144.59 C 525.021 1142.58 520.38 1140.9 518.512 1136.01 L 518.187 1135.14 C 513.912 1131.96 509.623 1128.87 504.229 1128.38 C 506.099 1129.82 506.885 1130.46 508.558 1132.11 L 507.92 1134.08 L 506.573 1134.07 C 501.064 1129.21 494.76 1123.94 489.74 1118.69 C 482.441 1114.44 465.031 1106.71 456.675 1102.65 z"/>
<path transform="translate(0,0)" fill="rgb(127,34,198)" d="M 568.21 1162.18 C 570.837 1162.17 573.463 1162.1 576.087 1161.96 L 574.15 1161.2 C 580.537 1162.62 586.13 1165.79 591.172 1166.35 C 597.504 1168.39 606.443 1172.67 612.768 1175.49 C 612.268 1179.73 612.079 1183.8 610.536 1187.74 C 598.262 1182.61 586.151 1177.09 574.222 1171.2 C 571.578 1167.74 568.257 1166.1 564.521 1163.73 C 566.693 1164.04 565.519 1163.99 568.046 1163.75 L 568.21 1162.18 z"/>
<path transform="translate(0,0)" fill="rgb(92,28,155)" d="M 489.74 1118.69 C 512.511 1128.96 535.197 1139.41 557.796 1150.05 C 564.011 1152.94 586.498 1163.05 591.172 1166.35 C 586.13 1165.79 580.537 1162.62 574.15 1161.2 L 576.087 1161.96 C 573.463 1162.1 570.837 1162.17 568.21 1162.18 C 555.175 1155.45 543.79 1149.98 530.133 1144.59 C 525.021 1142.58 520.38 1140.9 518.512 1136.01 L 518.187 1135.14 C 513.912 1131.96 509.623 1128.87 504.229 1128.38 C 506.099 1129.82 506.885 1130.46 508.558 1132.11 L 507.92 1134.08 L 506.573 1134.07 C 501.064 1129.21 494.76 1123.94 489.74 1118.69 z"/>
<path transform="translate(0,0)" fill="rgb(151,39,198)" d="M 437.569 1099.82 C 445.46 1100.12 449.015 1100.1 456.675 1102.65 C 465.031 1106.71 482.441 1114.44 489.74 1118.69 C 494.76 1123.94 501.064 1129.21 506.573 1134.07 L 507.92 1134.08 L 508.558 1132.11 C 506.885 1130.46 506.099 1129.82 504.229 1128.38 C 509.623 1128.87 513.912 1131.96 518.187 1135.14 L 518.512 1136.01 C 520.38 1140.9 525.021 1142.58 530.133 1144.59 C 543.79 1149.98 555.175 1155.45 568.21 1162.18 L 568.046 1163.75 C 565.519 1163.99 566.693 1164.04 564.521 1163.73 C 568.257 1166.1 571.578 1167.74 574.222 1171.2 C 524.316 1148.25 471.454 1124.12 422.143 1100.17 C 427.069 1099.94 432.595 1099.93 437.569 1099.82 z"/>
<path transform="translate(0,0)" fill="rgb(151,39,198)" d="M 404.417 1103.07 C 425.55 1114.1 449.815 1124.8 471.599 1134.86 L 563.306 1177.52 C 577.241 1184 595.099 1191.73 608.464 1198.66 C 607.23 1205.09 605.874 1211.51 604.397 1217.89 C 592.685 1210.51 561.259 1197.33 547.103 1190.81 C 498.304 1168.33 448.953 1144.23 399.79 1122.8 C 400.243 1115.31 400.112 1109.41 404.417 1103.07 z"/>
<path transform="translate(0,0)" fill="rgb(231,83,223)" d="M 1331.79 1360.81 C 1342.81 1356.88 1346.82 1353.61 1359.5 1359.61 C 1369.45 1364.7 1379.69 1369.58 1389.58 1374.77 C 1404.37 1382.53 1422.21 1389.22 1436.32 1397.93 C 1480.46 1425.17 1532.02 1452.03 1569.83 1487.81 C 1578.84 1496.68 1586.81 1504.78 1596.8 1512.6 C 1589.56 1510.77 1557.84 1487.61 1549.2 1482.06 C 1478.79 1436.84 1407.36 1397.08 1331.79 1360.81 z"/>
<path transform="translate(0,0)" fill="rgb(151,39,198)" d="M 632.347 1410.29 L 635.396 1409.81 C 639.269 1412.42 643.179 1414.98 647.125 1417.49 L 647.87 1418.02 C 658.286 1425.32 675.962 1429.21 682.299 1433.73 L 682.191 1434.51 C 668.136 1436.38 644.989 1440.38 631.623 1444.79 C 624.36 1439.47 611.619 1433.39 602.152 1426.59 C 600.353 1426.11 598.588 1425.5 596.868 1424.79 C 593.667 1423.47 591.278 1422.07 589.934 1418.84 C 599.5 1415.79 621.966 1412.16 632.347 1410.29 z"/>
<path transform="translate(0,0)" fill="rgb(126,206,251)" d="M 632.347 1410.29 L 635.396 1409.81 C 639.269 1412.42 643.179 1414.98 647.125 1417.49 C 634.66 1420.14 614.459 1424.99 602.152 1426.59 C 600.353 1426.11 598.588 1425.5 596.868 1424.79 C 593.667 1423.47 591.278 1422.07 589.934 1418.84 C 599.5 1415.79 621.966 1412.16 632.347 1410.29 z"/>
<path transform="translate(0,0)" fill="rgb(254,254,254)" d="M 304.742 1201.01 C 309.65 1202.93 323.983 1225.83 329.057 1231.46 C 430.034 1343.61 568.259 1424.06 699.748 1494.92 C 956.263 1633.15 1234.46 1748.92 1526.8 1777.69 C 1597.03 1784.49 1692.57 1783.92 1757.57 1755.53 C 1762.44 1753.4 1767.3 1751.23 1772.15 1749.02 C 1770.19 1758.38 1768.11 1770.07 1759.15 1774.87 C 1740.76 1784.71 1712.63 1790.58 1692.25 1793.49 C 1558.89 1812.53 1405.37 1785.1 1275.53 1751.42 C 1166.35 1722.15 1059.5 1684.81 955.852 1639.73 C 870.486 1602.37 786.798 1561.3 705.028 1516.62 C 589.255 1454.32 431.749 1361.76 343.198 1263.09 C 325.069 1242.57 311.153 1227.74 304.742 1201.01 z"/>
<path transform="translate(0,0)" fill="rgb(185,105,40)" d="M 1068.98 266.544 C 1095.53 235.846 1108.86 232.233 1147.3 219.161 C 1142.14 227.88 1126.74 251.703 1126.85 260.538 C 1130.97 264.862 1152.01 255.053 1160.02 255.431 C 1168.22 255.82 1193.71 250.433 1198.67 260.105 C 1197.73 262.344 1176.03 275.168 1170.28 280.95 C 1185.24 284.297 1196.72 287.817 1211.44 292.149 C 1228.82 279.672 1251.54 261.779 1273.41 260.346 C 1314.53 257.652 1350.92 326.93 1354.14 359.79 L 1354.3 361.024 C 1355.03 367.144 1354.49 375.617 1356.01 380.279 C 1363 384.492 1371.97 385.784 1378.49 389.46 C 1394.57 398.531 1410.16 416.531 1414.28 434.85 C 1420.61 463.064 1414.5 481.225 1398.09 503.47 C 1401.76 512.881 1412.26 523.622 1417.35 533.788 C 1442.16 583.363 1457.55 632.987 1436.6 686.99 C 1406.46 764.724 1337.98 795.262 1261.73 813.391 L 1262.8 814.676 C 1269.74 823.085 1274.46 832.213 1280.42 841.203 C 1301.88 873.552 1329.11 902.052 1355.72 930.186 C 1366.72 941.816 1379.54 956.568 1391.33 967.021 C 1367.54 969.223 1345.38 978.202 1348.3 1006.61 C 1348.56 1009.08 1348.88 1011.55 1349.25 1014 L 1350.8 1020.7 C 1351.89 1023.21 1352.99 1025.49 1353.69 1028.15 C 1352.47 1026.88 1350.14 1024.35 1348.51 1024 C 1337.71 1021.67 1325.14 1020.61 1314.21 1019.16 C 1301.49 1017.57 1288.87 1015.17 1276.45 1011.97 C 1259.77 1008.78 1228.12 994.289 1218.93 993.443 C 1220.12 1018.26 1219.94 1045.71 1221.47 1069.29 C 1202.3 1074.81 1157.04 1087.25 1139 1088.66 C 1116.75 1093.48 1083.88 1095.66 1060.86 1096.62 C 958.38 1100.88 871.756 1079.73 776.079 1046.7 C 725.497 1026.9 677.03 1002.07 631.405 972.59 C 626.8 969.677 611.42 960.448 609.329 956.196 C 611.889 936.076 616.244 891.894 620.729 873.285 C 623.873 857.877 631.001 831.621 635.687 816.858 C 601.573 817.895 551.509 810.674 518.999 802.908 C 519.568 801.915 520.127 800.917 520.675 799.912 C 527.246 787.933 530.773 772.866 526.222 759.713 C 519.862 741.329 509.99 739.649 496.126 732.202 C 497.162 731.248 498.757 729.387 499.771 728.283 L 501.424 727.803 C 511.452 715.621 557.482 690.969 573.888 679.825 C 597.656 666.085 626.174 652.218 650.934 640.154 C 663.821 633.875 680.223 628.935 692.142 622.789 C 710.451 599.261 724.237 563.892 742.258 539.064 C 755.481 520.844 767.481 501.617 781.333 483.74 C 788.543 474.435 797.787 464.164 803.791 454.317 C 780.391 431.874 758.13 402.133 776.032 367.345 C 786.944 346.14 816.912 338.585 834.834 323.72 C 854.316 307.56 867.338 283.176 886.757 267.449 C 895.059 260.619 904.733 255.655 915.122 252.894 C 939.056 246.753 962.184 254.729 982.419 267.708 C 990.169 272.679 997.522 279.072 1005.39 283.69 L 1006.24 284.177 C 1037.37 272.617 1049.72 256.254 1065.42 229.208 C 1066.85 241.823 1067.22 253.857 1068.98 266.544 z"/>
<path transform="translate(0,0)" fill="rgb(254,254,254)" d="M 995.858 759.218 C 987.588 752.209 979.36 745.27 972.382 736.918 C 955.55 716.774 950.164 691.518 952.738 665.778 C 958.465 608.501 1002.37 576.666 1056.71 568.864 C 1096.07 563.212 1144.64 571.849 1177.43 544.389 C 1220 508.746 1196.84 439.031 1175.32 398.836 C 1163.74 377.216 1127.95 335.575 1130.93 312.025 C 1131.39 308.339 1132.92 305.546 1135.88 303.274 C 1138.71 301.109 1142.46 301.352 1145.81 301.821 C 1215.66 311.597 1321.6 435.345 1363.44 490.701 C 1377.25 508.975 1389.52 527.23 1400.88 547.121 C 1421.31 582.887 1430.73 607.744 1424.61 649.977 C 1420.37 679.316 1404.37 722.06 1379.9 740.508 C 1381.02 743.502 1382.4 745.055 1380.66 748.28 C 1375.99 756.915 1352.97 766.308 1343.85 763.285 C 1319.4 777.754 1302.59 784.792 1274.48 791.659 C 1264.7 794.047 1246.06 797.605 1237.56 800.666 C 1204.88 826.848 1194.65 836.156 1176.72 874.702 C 1153.78 936.271 1162.94 975.165 1154.15 1037.69 C 1152.38 1050.33 1144.03 1076.46 1139 1088.66 C 1116.75 1093.48 1083.88 1095.66 1060.86 1096.62 C 958.38 1100.88 871.756 1079.73 776.079 1046.7 C 779.096 973.502 793.442 921.711 837.038 860.518 C 871.631 811.962 936.552 768.315 995.858 759.218 z"/>
<path transform="translate(0,0)" fill="rgb(214,213,213)" d="M 1176.72 874.702 C 1176.25 874.08 1175.28 873.146 1174.51 873.038 C 1130.82 866.929 1089.78 848.488 1061.2 813.997 C 1051.25 801.999 1044.12 792.732 1038.02 778.415 C 1113.01 809.471 1159.56 806.546 1237.56 800.666 C 1204.88 826.848 1194.65 836.156 1176.72 874.702 z"/>
<path transform="translate(0,0)" fill="rgb(232,154,141)" d="M 1353.74 671.052 C 1330.7 666.202 1305.28 659.431 1294.61 635.717 C 1284.94 614.222 1295.92 597.73 1316.96 590.732 C 1338.76 583.48 1371.29 580.547 1392.9 589.901 C 1413.66 598.891 1413.11 621.663 1403.96 638.871 C 1395.74 654.701 1376.66 665.716 1360.1 670.652 C 1357.8 670.621 1355.77 670.312 1353.74 671.052 z"/>
<path transform="translate(0,0)" fill="rgb(125,64,24)" d="M 1307.12 620.978 C 1326.79 620.422 1338.75 631.837 1342.51 650.361 C 1326.57 645.621 1311.43 638.461 1307.12 620.978 z"/>
<path transform="translate(0,0)" fill="rgb(125,64,24)" d="M 1398.75 615.653 L 1400.24 616.736 C 1405.45 628.013 1388.49 641.225 1380.62 647.434 L 1378.39 646.295 C 1374.6 635.576 1390.94 621.483 1398.75 615.653 z"/>
<path transform="translate(0,0)" fill="rgb(125,64,24)" d="M 1353.74 671.052 C 1355.77 670.312 1357.8 670.621 1360.1 670.652 C 1358.94 696.042 1350.71 715.58 1342.92 739.232 C 1340.63 746.188 1351.37 747.86 1356.13 747.33 C 1365.24 746.315 1371.72 744.533 1379.9 740.508 C 1381.02 743.502 1382.4 745.055 1380.66 748.28 C 1375.99 756.915 1352.97 766.308 1343.85 763.285 C 1339.08 761.066 1336.63 760.162 1332.56 756.658 C 1296.31 775.866 1263.95 768.98 1237.55 737.538 C 1262.04 746.141 1287.55 759.917 1313.77 745.616 C 1338.45 732.148 1346.59 695.892 1353.74 671.052 z"/>
<path transform="translate(0,0)" fill="rgb(254,254,254)" d="M 1354.14 359.79 L 1354.3 361.024 C 1355.03 367.144 1354.49 375.617 1356.01 380.279 C 1363 384.492 1371.97 385.784 1378.49 389.46 C 1394.57 398.531 1410.16 416.531 1414.28 434.85 C 1420.61 463.064 1414.5 481.225 1398.09 503.47 C 1394.41 506.121 1394.55 506.315 1390.72 506.358 C 1387.56 504.615 1386.92 502.684 1385.13 499.516 C 1383.02 497.262 1381.82 494.513 1380.3 491.74 C 1374.36 485.755 1362.03 468.856 1356.27 461.444 C 1344.37 446.224 1332.27 431.159 1319.97 416.254 C 1316.35 411.719 1312.69 407.211 1309 402.729 C 1320.89 392.831 1334.35 390.072 1349.36 390.321 L 1350.95 389.79 C 1352.66 386.854 1352.16 384.354 1352.26 380.663 C 1352.96 373.743 1353.53 366.726 1354.14 359.79 z"/>
<path transform="translate(0,0)" fill="rgb(0,0,0)" d="M 1319.97 416.254 C 1347.62 403.044 1376.44 402.479 1390.77 435.01 C 1396.21 447.099 1396.48 460.884 1391.54 473.183 C 1388.66 480.355 1384.75 485.531 1380.3 491.74 C 1374.36 485.755 1362.03 468.856 1356.27 461.444 C 1344.37 446.224 1332.27 431.159 1319.97 416.254 z"/>
<path transform="translate(0,0)" fill="rgb(254,254,254)" d="M 1362.18 421.677 C 1369.99 419.459 1378.11 424.029 1380.27 431.858 C 1382.43 439.686 1377.8 447.776 1369.96 449.878 C 1362.2 451.959 1354.21 447.387 1352.07 439.64 C 1349.93 431.893 1354.45 423.873 1362.18 421.677 z"/>
<path transform="translate(0,0)" fill="rgb(110,70,44)" d="M 1354.14 359.79 L 1354.3 361.024 C 1355.03 367.144 1354.49 375.617 1356.01 380.279 C 1363 384.492 1371.97 385.784 1378.49 389.46 C 1394.57 398.531 1410.16 416.531 1414.28 434.85 C 1420.61 463.064 1414.5 481.225 1398.09 503.47 C 1394.41 506.121 1394.55 506.315 1390.72 506.358 C 1387.56 504.615 1386.92 502.684 1385.13 499.516 C 1396.71 490.274 1403.54 478.84 1406.05 464.257 C 1408.94 447.608 1405.09 430.495 1395.36 416.683 C 1383.94 400.649 1368.33 393.576 1349.36 390.321 L 1350.95 389.79 C 1352.66 386.854 1352.16 384.354 1352.26 380.663 C 1352.96 373.743 1353.53 366.726 1354.14 359.79 z"/>
<path transform="translate(0,0)" fill="rgb(125,64,24)" d="M 1255.01 328.676 C 1266.69 289.89 1285.81 266.147 1317.7 308.238 C 1334.73 330.716 1344.83 352.501 1340.41 380.709 L 1352.26 380.663 C 1352.16 384.354 1352.66 386.854 1350.95 389.79 L 1349.36 390.321 C 1334.35 390.072 1320.89 392.831 1309 402.729 C 1305.7 399.863 1305.89 400.868 1304.74 397.289 C 1305.66 393.154 1308.64 390.744 1311.63 387.505 C 1303.69 379.135 1296.11 368.999 1287.95 360.518 C 1277.37 349.519 1266.1 339.179 1255.01 328.676 z"/>
<path transform="translate(0,0)" fill="rgb(125,64,24)" d="M 1231.48 868.06 C 1234.03 906.049 1239.23 947.96 1269.82 974.97 C 1290.5 993.231 1322.84 1006.84 1349.25 1014 L 1350.8 1020.7 C 1351.89 1023.21 1352.99 1025.49 1353.69 1028.15 C 1352.47 1026.88 1350.14 1024.35 1348.51 1024 C 1337.71 1021.67 1325.14 1020.61 1314.21 1019.16 C 1301.49 1017.57 1288.87 1015.17 1276.45 1011.97 C 1259.77 1008.78 1228.12 994.289 1218.93 993.443 C 1217.22 964.129 1215.5 937.299 1220.98 907.991 C 1223.62 893.846 1228.52 881.375 1231.48 868.06 z"/>
<path transform="translate(0,0)" fill="rgb(110,70,44)" d="M 1276.45 1011.97 C 1283.02 1010.97 1311.7 1016.81 1322.68 1017.82 L 1312.35 1014.78 C 1323.4 1015.79 1336.07 1017.83 1346.89 1020.61 C 1349.25 1021.22 1348.23 1021.48 1350.8 1020.7 C 1351.89 1023.21 1352.99 1025.49 1353.69 1028.15 C 1352.47 1026.88 1350.14 1024.35 1348.51 1024 C 1337.71 1021.67 1325.14 1020.61 1314.21 1019.16 C 1301.49 1017.57 1288.87 1015.17 1276.45 1011.97 z"/>
<path transform="translate(0,0)" fill="rgb(125,64,24)" d="M 750.313 808.906 C 719.917 843.951 670.013 864.691 624.656 868.32 C 623.932 868.378 621.184 872.557 620.729 873.285 C 623.873 857.877 631.001 831.621 635.687 816.858 C 674.016 817.34 712.59 817.076 750.313 808.906 z"/>
<path transform="translate(0,0)" fill="rgb(125,64,24)" d="M 692.142 622.789 C 696.037 624.511 702.995 621.996 707.423 621.466 C 723.745 619.511 740.315 619.135 756.712 618.208 C 738.382 625.083 721.298 629.996 703.029 636.319 C 668.007 648.29 633.488 661.684 599.557 676.467 C 576.962 686.554 552.901 701.838 530.814 713.226 C 523.71 716.889 508.768 725.833 501.424 727.803 C 511.452 715.621 557.482 690.969 573.888 679.825 C 597.656 666.085 626.174 652.218 650.934 640.154 C 663.821 633.875 680.223 628.935 692.142 622.789 z"/>
<path transform="translate(0,0)" fill="rgb(125,64,24)" d="M 919.517 279.233 C 956.253 276.389 974.733 335.745 983.925 362.738 C 955.889 365.07 937.851 367.127 912.963 380.716 C 925.07 387.377 933.633 393.685 944.847 401.727 C 919.478 408.471 914.329 410.679 892.916 425.086 L 919.616 437.912 C 910.511 446.29 905.883 450.063 895.173 456.149 C 872.941 468.417 853.982 467.018 830.509 456.271 C 802.512 443.81 770.881 411.867 786.943 378.947 C 795.462 361.486 825.414 353.473 841.159 342.852 C 871.293 322.525 883.004 290.573 919.517 279.233 z"/>
<path transform="translate(0,0)" fill="rgb(125,64,24)" d="M 1102.47 400.48 C 1144.45 398.102 1180.5 429.994 1183.25 471.947 C 1186.01 513.899 1154.44 550.236 1112.52 553.371 C 1070.05 556.547 1033.15 524.486 1030.36 481.995 C 1027.56 439.505 1059.96 402.89 1102.47 400.48 z"/>
<path transform="translate(0,0)" fill="rgb(254,254,254)" d="M 1101.51 410.454 C 1138.28 407.487 1170.45 435 1173.22 471.789 C 1176 508.577 1148.31 540.601 1111.51 543.181 C 1074.98 545.741 1043.25 518.309 1040.49 481.794 C 1037.74 445.279 1065.01 413.399 1101.51 410.454 z"/>
<path transform="translate(0,0)" fill="rgb(0,0,0)" d="M 1107.04 428.32 C 1134.76 424.182 1160.57 443.376 1164.58 471.12 C 1168.59 498.863 1149.27 524.577 1121.51 528.457 C 1093.93 532.312 1068.42 513.152 1064.44 485.59 C 1060.46 458.029 1079.5 432.431 1107.04 428.32 z"/>
<path transform="translate(0,0)" fill="rgb(254,254,254)" d="M 1129.76 443.407 C 1138.94 442.306 1147.26 448.881 1148.31 458.063 C 1149.36 467.244 1142.73 475.525 1133.55 476.521 C 1124.43 477.509 1116.23 470.951 1115.19 461.844 C 1114.15 452.736 1120.66 444.499 1129.76 443.407 z"/>
<path transform="translate(0,0)" fill="rgb(232,154,141)" d="M 414.728 764.059 L 410.314 761.1 C 400.791 742.339 458.782 729.973 470.28 731.866 C 476.103 731.017 490.602 730.771 496.126 732.202 C 509.99 739.649 519.862 741.329 526.222 759.713 C 530.773 772.866 527.246 787.933 520.675 799.912 C 520.127 800.917 519.568 801.915 518.999 802.908 C 510.776 809.574 486.783 836.528 476.035 825.754 C 472.722 816.561 477.976 805.36 481.514 796.835 C 470.025 797.156 459.641 800.364 448.446 802.805 C 437.361 805.223 408.953 812.829 422.296 790.888 C 420.182 788.49 419.691 789.292 415.32 788.934 C 401.308 785.141 403.71 776.426 411.96 767.963 C 412.608 767.249 414.095 764.971 414.728 764.059 z"/>
<path transform="translate(0,0)" fill="rgb(221,157,144)" d="M 414.728 764.059 L 410.314 761.1 C 400.791 742.339 458.782 729.973 470.28 731.866 C 465.78 731.916 450.043 736.455 447.642 739.248 C 442.436 745.303 437.554 744.064 433.697 746.479 C 436.496 747.03 436.936 747.007 439.592 747.963 C 430.019 749.739 414.716 751.774 414.728 764.059 z"/>
<path transform="translate(0,0)" fill="rgb(185,105,40)" d="M 416.735 787.243 C 434.608 769.94 444.768 766.889 469.479 765.497 C 460.566 769.454 451.23 773.265 442.402 777.429 C 437.961 779.524 426.348 790.01 422.296 790.888 C 420.182 788.49 419.691 789.292 415.32 788.934 L 416.735 787.243 z"/>
<path transform="translate(0,0)" fill="rgb(185,105,40)" d="M 439.592 747.963 C 447.778 747.79 453.132 747.563 461.194 748.606 C 451.855 751.585 417.214 761.88 414.105 769.316 L 411.96 767.963 C 412.608 767.249 414.095 764.971 414.728 764.059 C 414.716 751.774 430.019 749.739 439.592 747.963 z"/>
<path transform="translate(0,0)" fill="rgb(221,157,144)" d="M 411.96 767.963 L 414.105 769.316 C 414.399 776.639 412.235 780.36 416.735 787.243 L 415.32 788.934 C 401.308 785.141 403.71 776.426 411.96 767.963 z"/>
<path transform="translate(0,0)" fill="rgb(232,154,141)" d="M 1391.33 967.021 C 1409.09 969.52 1463 978.179 1460.82 1002.98 C 1456.36 1007.37 1456.96 1006.73 1458.46 1013.31 C 1462.1 1017.57 1464.72 1021.19 1461.65 1026.5 C 1458.81 1028.19 1458.5 1028 1455.29 1028.36 C 1452.29 1028.68 1447.23 1029 1444.6 1030.04 C 1447.08 1035.42 1449.57 1039.15 1444.17 1043.32 C 1434.69 1044.92 1403.09 1032.46 1391.46 1028.51 C 1391.84 1036.79 1395.56 1052.27 1389.77 1058.49 C 1377.85 1061.93 1359.09 1037 1353.69 1028.15 C 1352.99 1025.49 1351.89 1023.21 1350.8 1020.7 L 1349.25 1014 C 1348.88 1011.55 1348.56 1009.08 1348.3 1006.61 C 1345.38 978.202 1367.54 969.223 1391.33 967.021 z"/>
<path transform="translate(0,0)" fill="rgb(185,105,40)" d="M 1403.29 999.748 C 1417.75 1002.75 1440.44 1008.04 1446.94 1022.97 L 1445.17 1026.92 C 1446.49 1028.08 1452.93 1028.16 1455.29 1028.36 C 1452.29 1028.68 1447.23 1029 1444.6 1030.04 C 1431.72 1016.53 1417.48 1011.7 1403.29 999.748 z"/>
<path transform="translate(0,0)" fill="rgb(185,105,40)" d="M 1418.89 987.844 C 1422.7 987.965 1426.5 988.253 1430.28 988.706 C 1444.3 990.311 1451.99 991.879 1460.82 1002.98 C 1456.36 1007.37 1456.96 1006.73 1458.46 1013.31 C 1448.59 1002.28 1432.05 994.444 1418.89 987.844 z"/>
</svg>